<svg id="Layer_1" xmlns="http://www.w3.org/2000/svg" viewBox="0 0 253.7 44.3"><style>.st6{fill:#353535}.st7{font-family:&apos;PTSans-Regular&apos;}.st8{font-size:8px}.st9{enable-background:new}</style><path d="M.7 0h42.9v7.3H.7V0z" fill="#00b050"/><path d="M42.6 0h42.9v7.3H42.6V0z" fill="#92d050"/><path d="M84.6 0h42.9v7.3H84.6V0z" fill="#ff0"/><path d="M126.5 0h42.9v7.3h-42.9V0z" fill="#f90"/><path d="M168.5 0h42.9v7.3h-42.9V0z" fill="red"/><path d="M210.4 0h42.9v7.3h-42.9V0z" fill="#c00000"/><text transform="translate(0 21.8)" class="st6 st7 st8">0</text><text transform="translate(37.26 21.8)" class="st6 st7 st8">50</text><text transform="translate(74.52 21.8)" class="st6 st7 st8">100</text><text transform="translate(116.14 21.8)" class="st6 st7 st8">200</text><text transform="translate(157.76 21.8)" class="st6 st7 st8">300</text><text transform="translate(199.38 21.8)" class="st6 st7 st8">400</text><text transform="translate(241 21.8)" class="st6 st7 st8">500</text><g class="st9"><path class="st6" d="M3.2 37.7h1.9v2.5c-.1.1-.2.1-.3.2-.1.1-.2.1-.4.1-.1 0-.3.1-.4.1h-.4c-.4 0-.7-.1-1-.2-.3-.1-.6-.3-.8-.5s-.4-.5-.5-.9-.2-.8-.2-1.3.1-1 .2-1.3.3-.7.6-.9c.2-.2.5-.4.8-.5s.6-.2.9-.2c.3 0 .6 0 .8.1.2 0 .4.1.5.1l-.2.6c-.3-.1-.6-.2-1.1-.2-.2 0-.4 0-.7.1-.2.1-.4.2-.6.4-.1.1-.2.4-.3.7-.1.3-.2.7-.2 1.1 0 .4 0 .7.1 1s.2.5.4.7c.2.2.4.3.6.4.2.1.5.1.7.1.3 0 .6-.1.9-.2v-1.6L3.2 38v-.3zM6 38.4c0-.7.2-1.2.5-1.6.3-.4.7-.5 1.3-.5.3 0 .6 0 .8.1s.4.2.5.4c.1.2.3.4.3.7.1.3.1.5.1.9 0 .7-.2 1.2-.5 1.6-.3.4-.7.5-1.3.5-.3 0-.6 0-.8-.1-.2-.1-.4-.2-.5-.4-.1-.2-.3-.4-.3-.7s-.1-.5-.1-.9zm.6 0c0 .2 0 .4.1.6 0 .2.1.3.2.5.1.1.2.3.3.3.1.1.3.2.5.2.7 0 1.1-.5 1.1-1.5 0-.2 0-.4-.1-.6s-.1-.3-.2-.5-.1-.3-.3-.4c-.1-.1-.3-.1-.5-.1-.7 0-1.1.5-1.1 1.5zM10.2 38.4c0-.7.2-1.2.5-1.6.3-.4.7-.5 1.3-.5.3 0 .6 0 .8.1s.4.2.5.4c.1.2.3.4.3.7.1.3.1.5.1.9 0 .7-.2 1.2-.5 1.6-.3.4-.7.5-1.3.5-.3 0-.6 0-.8-.1-.2-.1-.4-.2-.5-.4-.1-.2-.3-.4-.3-.7s-.1-.5-.1-.9zm.7 0c0 .2 0 .4.1.6 0 .2.1.3.2.5.1.1.2.3.3.3.1.1.3.1.5.1.7 0 1.1-.5 1.1-1.5 0-.2 0-.4-.1-.6s-.1-.3-.2-.5-.2-.2-.3-.3c-.1-.1-.3-.1-.5-.1-.7 0-1.1.5-1.1 1.5zM17.8 39.1v.7c0 .2 0 .4.1.7h-.4l-.2-.6c-.1.2-.3.3-.5.5-.2.1-.4.2-.7.2-.5 0-.9-.2-1.2-.5-.3-.3-.4-.9-.4-1.6 0-.7.2-1.2.5-1.6s.8-.5 1.3-.5h.5c.1 0 .2.1.4.1v-1.7h.6v4.3zm-1.6.9c.3 0 .5-.1.6-.2.2-.1.3-.4.3-.6v-2c0-.1-.1-.2-.2-.2h-.5c-.4 0-.7.1-.9.4-.2.2-.3.6-.3 1.2 0 .2 0 .4.1.6s.1.3.2.5l.3.3c.1-.1.2 0 .4 0z"/></g><g class="st9"><path class="st6" d="M233.6 39c0-.2-.1-.4-.2-.5-.1-.1-.3-.3-.5-.4s-.4-.2-.7-.3c-.2-.1-.5-.2-.7-.3-.2-.1-.4-.3-.5-.5-.1-.2-.2-.5-.2-.8 0-.4.2-.8.5-1 .3-.3.7-.4 1.3-.4.3 0 .6 0 .9.1s.5.1.6.2l-.2.6c-.1-.1-.3-.1-.5-.2s-.5-.1-.8-.1c-.4 0-.6.1-.8.2s-.3.3-.3.6c0 .2.1.4.2.5.1.1.3.3.5.4.2.1.4.2.7.3s.5.2.7.4c.2.1.4.3.5.5.1.2.2.4.2.7 0 .2 0 .5-.1.6-.1.2-.2.4-.4.5l-.6.3c-.2.1-.5.1-.8.1-.4 0-.7 0-1-.1-.3-.1-.5-.1-.6-.2l.2-.6c.1.1.3.1.5.2s.5.1.8.1c.2 0 .3 0 .5-.1.2 0 .3-.1.4-.2l.3-.3s.1-.1.1-.3z"/></g><g class="st9"><path class="st6" d="M238.1 40.1l-.6.3c-.2.1-.5.1-.8.1-.3 0-.6 0-.8-.1s-.4-.2-.6-.4c-.1-.2-.3-.4-.3-.7s-.1-.5-.1-.9c0-.7.2-1.2.5-1.6.3-.4.7-.5 1.3-.5.2 0 .4 0 .5.1s.3.1.5.2c.1.1.3.3.4.5s.1.5.1.8v.6h-2.6c0 .2 0 .4.1.6 0 .2.1.3.2.5.1.1.2.2.4.3.2.1.4.1.6.1.2 0 .4 0 .5-.1.2-.1.3-.1.4-.2l.3.4zm-1.4-3.2c-.3 0-.6.1-.8.2s-.3.4-.3.8h2c0-.4-.1-.7-.2-.9-.2 0-.4-.1-.7-.1z"/></g><g class="st9"><path class="st6" d="M240.2 38.8l.2.8.2-.8.9-2.3h.7l-1.7 4.1h-.3l-1.7-4.1h.7l1 2.3z"/></g><g class="st9"><path class="st6" d="M245.8 40.1l-.6.3c-.2.1-.5.1-.8.1-.3 0-.6 0-.8-.1s-.4-.2-.6-.4c-.1-.2-.3-.4-.3-.7s-.1-.5-.1-.9c0-.7.2-1.2.5-1.6.3-.4.7-.5 1.3-.5.2 0 .4 0 .5.1s.3.1.5.2c.1.1.3.3.4.5s.1.5.1.8v.6h-2.6c0 .2 0 .4.1.6 0 .2.1.3.2.5.1.1.2.2.4.3.2.1.4.1.6.1.2 0 .4 0 .5-.1.2-.1.3-.1.4-.2l.3.4zm-1.4-3.2c-.3 0-.6.1-.8.2s-.3.4-.3.8h2c0-.4-.1-.7-.2-.9-.2 0-.4-.1-.7-.1zM248.8 37.1c-.2-.1-.3-.1-.5-.1s-.4.1-.5.2c-.1.1-.2.3-.2.5v2.8h-.6v-4h.4l.1.5c.1-.2.2-.3.4-.4.1-.1.3-.1.5-.1s.3 0 .5.1l-.1.5zM252.6 40.1l-.6.3c-.2.1-.5.1-.8.1-.3 0-.6 0-.8-.1s-.4-.2-.6-.4c-.1-.2-.3-.4-.3-.7s-.1-.5-.1-.9c0-.7.2-1.2.5-1.6.3-.4.7-.5 1.3-.5.2 0 .4 0 .5.1s.3.1.5.2c.1.1.3.3.4.5s.1.5.1.8v.6h-2.6c0 .2 0 .4.1.6 0 .2.1.3.2.5.1.1.2.2.4.3.2.1.4.1.6.1.2 0 .4 0 .5-.1.2-.1.3-.1.4-.2l.3.4zm-1.4-3.2c-.3 0-.6.1-.8.2s-.3.4-.3.8h2c0-.4-.1-.7-.2-.9-.2 0-.4-.1-.7-.1z"/></g><g><g class="st9"><path class="st6" d="M114.4 39.2h-1.7l-.4 1.2h-1.1l2-5.6h.8l2 5.6h-1.2l-.4-1.2zm-1.4-.9h1.2l-.4-1.2-.2-.9-.2.9-.4 1.2z"/></g><g class="st9"><path class="st6" d="M116.1 37.7c0-.9.2-1.7.6-2.2s1-.8 1.8-.8c.4 0 .7.1 1 .2s.5.3.7.6c.2.3.3.6.4.9.1.4.1.8.1 1.2 0 .9-.2 1.7-.6 2.2-.4.5-1 .8-1.8.8-.4 0-.8-.1-1.1-.2s-.5-.3-.7-.6c-.2-.3-.3-.6-.4-.9v-1.2zm1.1 0c0 .3 0 .5.1.8 0 .2.1.4.2.6s.2.3.4.4.3.1.6.1c.4 0 .7-.2.9-.5.2-.3.3-.8.3-1.5 0-.3 0-.5-.1-.8 0-.2-.1-.4-.2-.6s-.2-.3-.4-.4-.3-.1-.6-.1c-.4 0-.7.2-.9.5-.1.3-.3.8-.3 1.5zm4.2 4.4c-.3.1-.5.1-.8.1-.3 0-.5 0-.8-.1-.3-.1-.5-.1-.7-.2-.2-.1-.5-.1-.7-.2-.2-.1-.4-.1-.6-.1h-.4v-.9h.5c.2 0 .4 0 .7.1.2.1.4.1.7.2.2.1.5.1.7.2.2.1.5.1.8.1h.4c.1 0 .2 0 .4-.1v.9zM121.7 34.9h1.1v5.6h-1.1v-5.6zM128.4 39c0-.2-.1-.3-.2-.4s-.3-.2-.5-.3l-.6-.3-.6-.3c-.2-.1-.3-.3-.5-.5s-.2-.5-.2-.8c0-.3 0-.5.1-.7.1-.2.2-.4.4-.5l.6-.3c.2-.1.5-.1.8-.1.3 0 .6 0 .9.1s.5.1.7.2l-.3.9c-.1-.1-.3-.1-.5-.2s-.5-.1-.8-.1c-.3 0-.5.1-.6.2-.1.1-.2.2-.2.4s.1.3.2.4c.1.1.3.2.5.3l.6.3.6.3c.2.1.3.3.5.5.1.2.2.4.2.7s0 .6-.1.8c-.1.2-.2.4-.4.5-.2.1-.4.3-.6.3s-.5.1-.8.1c-.4 0-.8 0-1.1-.1-.3-.1-.5-.1-.7-.2l.4-.9c.1 0 .1.1.2.1s.2.1.3.1.2.1.4.1h.4c.3 0 .6-.1.7-.2.1-.1.2-.2.2-.4zM133 40.2l-.6.3c-.2.1-.5.1-.7.1-.3 0-.6-.1-.8-.2-.2-.1-.4-.2-.5-.4-.1-.2-.2-.4-.3-.7-.1-.3-.1-.5-.1-.9 0-.7.2-1.2.5-1.6.3-.4.7-.5 1.3-.5.3 0 .5 0 .7.1s.3.1.5.2l-.2.8c-.1-.1-.2-.1-.4-.1h-.4c-.3 0-.5.1-.7.3s-.3.4-.3.9c0 .2 0 .3.1.5 0 .1.1.3.2.4l.3.3c.1.1.3.1.4.1.2 0 .3 0 .4-.1s.2-.1.3-.2l.3.7zM133.6 36.7c.2-.1.5-.2.8-.2.3-.1.6-.1.9-.1.3 0 .5 0 .7.1.2.1.3.2.4.3.1.1.2.3.2.4 0 .2.1.4.1.6V39.9c0 .2.1.4.1.6h-.8l-.2-.6c-.1.2-.3.3-.4.4s-.4.2-.7.2c-.2 0-.4 0-.5-.1-.1-.1-.3-.1-.4-.2-.1-.1-.2-.2-.2-.4s-.1-.3-.1-.5.1-.5.2-.6.3-.3.5-.4c.2-.1.5-.2.7-.2s.6-.1 1 0c0-.3 0-.5-.1-.6-.1-.1-.3-.2-.5-.2s-.4 0-.7.1c-.2 0-.4.1-.6.2l-.4-.9zm1.3 3c.2 0 .4 0 .5-.1l.3-.3v-.5h-.5c-.2 0-.3 0-.4.1-.1 0-.2.1-.3.2s-.1.2-.1.3c0 .1 0 .3.1.3h.4zM138.7 39.1c0 .2 0 .3.1.4 0 .1.1.1.2.1h.2c.1 0 .1 0 .2-.1l.1.8c-.1 0-.2.1-.4.1s-.4.1-.5.1c-.3 0-.5-.1-.7-.2-.2-.1-.2-.4-.2-.7v-4.8h1v4.3zM143.1 40.1c-.2.1-.4.2-.7.3-.3.1-.6.1-.9.1-.6 0-1.1-.2-1.4-.6s-.4-.9-.4-1.5c0-.7.2-1.2.5-1.6s.8-.5 1.4-.5c.2 0 .4 0 .6.1.2.1.4.1.5.3.1.1.3.3.4.5s.1.5.1.8v.4c0 .1 0 .3-.1.4h-2.4c0 .3.1.6.3.8.2.2.4.3.8.3.2 0 .4 0 .6-.1.2-.1.3-.1.4-.2l.3.5zm-1.4-2.9c-.3 0-.5.1-.6.2-.1.2-.2.4-.2.7h1.5c0-.3 0-.5-.1-.7-.2-.1-.4-.2-.6-.2z"/></g></g></svg>