<svg id="Layer_1" data-name="Layer 1" xmlns="http://www.w3.org/2000/svg" viewBox="0 0 200 200"><defs><style>.cls-1{fill:#25af56;stroke:#25af56;stroke-miterlimit:10;stroke-width:2px}</style></defs><path class="cls-1" d="M97.7 197a44.9 44.9 0 1 1 12.4-1.8 44.5 44.5 0 0 1-12.4 1.8zm0-83.1a38.4 38.4 0 1 0 37 27.8 38.3 38.3 0 0 0-37-27.8zM110.8 33.7a14.5 14.5 0 1 1 3.7-.5 14.6 14.6 0 0 1-3.7.5zm0-22.7a8.2 8.2 0 1 0 4 1.1 8.2 8.2 0 0 0-4-1.1zM124.2 96.4a20.5 20.5 0 1 1 10.3-38.3 20.6 20.6 0 0 1-10.3 38.3zm0-34.8a14.2 14.2 0 1 0 7.1 2 14.2 14.2 0 0 0-7-2zM68.3 74.6a19.3 19.3 0 1 1 19.3-19.2 19.3 19.3 0 0 1-19.3 19.2zm0-32.2a13 13 0 1 0 13 13 13 13 0 0 0-13-13z"/></svg>