<svg xmlns="http://www.w3.org/2000/svg" viewBox="0 0 514.8 514.8">
  <path fill="#0e65ad" d="M406 47.6c-7 0-13.7 1.6-19.7 4.3a73.1 73.1 0 0 0-114-22A126 126 0 0 0 190.5 0C123.6 0 69.4 50.6 68 113.5a73.1 73.1 0 0 0 12.2 137l338.6 2.4A73.1 73.1 0 0 0 449.9 115a47.8 47.8 0 0 0-44-67.4zM141.8 372.4c8.5-16.5 9.5-91.4 9.5-91.4s-60.5 44.1-69 60.6a33.5 33.5 0 1 0 59.5 30.8zm124.3 0c8.5-16.5 9.6-91.4 9.6-91.4s-60.6 44.1-69.1 60.6a33.5 33.5 0 1 0 59.5 30.8zm88.8 14.3c16.4 8.5 36.6 2.1 45.1-14.3 8.5-16.5 9.5-91.4 9.5-91.4s-60.5 44.1-69 60.6a33.5 33.5 0 0 0 14.4 45.1zM125.4 511c16.4 8.5 36.6 2.1 45.1-14.3 8.5-16.5 9.5-91.4 9.5-91.4s-60.5 44.2-69 60.6a33.5 33.5 0 0 0 14.4 45.1zm124.3 0c16.4 8.5 36.6 2.1 45.1-14.3 8.5-16.5 9.6-91.4 9.6-91.4s-60.6 44.2-69.1 60.6a33.5 33.5 0 0 0 14.4 45.1z"/>
</svg>
