<svg id="Layer_1" xmlns="http://www.w3.org/2000/svg" viewBox="0 0 807.5 164.7"><style>.st3{fill:#fff}</style><linearGradient id="SVGID_1_" gradientUnits="userSpaceOnUse" x1="12" y1="86.151" x2="111.333" y2="86.151"><stop offset="0" stop-color="#2598ac"/><stop offset=".1" stop-color="#2c9ea8"/><stop offset=".7" stop-color="#49b896"/><stop offset="1" stop-color="#54c290"/></linearGradient><path d="M111.3 49.1c-1.2 16.6-7.5 32.5-18.1 45.3l-2.8 3.2a79.99 79.99 0 0 1-72.6 24.5c5.6-20.1 23.2-34.6 44-36.3l-3.7-.2c-20.5.2-38.8 12.8-46.1 31.9v-.2c0-27.1 21.8-49.2 48.9-49.5 18.5-.2 36.4-6.8 50.4-18.8v.1z" fill="url(#SVGID_1_)"/><path d="M77.8 112.5l2.4 10.9c.4 1.4 1.3 2.7 2.5 3.6 1.3.6 2.7 1 4.1 1h8.3V97c-5 5.9-10.9 11.1-17.3 15.5zm17.4-55.6c-.2-4.9-1-9.7-2.4-14.4C89.9 33 83 25.3 73.9 21.3c-5.1-2-10.5-2.9-16-2.9-15.6-.2-30.6 5.9-41.7 16.8l3.3 6c.6 1 1.5 2 2.5 2.7 1 .6 2.1.9 3.2.9 1.8 0 3.6-.6 4.9-1.8 4.3-3.3 9.1-5.9 14.1-7.9 3.8-1.2 7.8-1.8 11.7-1.9 7 0 12.3 2.2 15.9 6.4 3.6 4.2 5.2 10.7 5.2 19v4.1c6.3-.9 12.5-2.9 18.2-5.8z" opacity=".65" fill="#fff"/><g opacity=".65"><path class="st3" d="M234.3 98.6h-38.6l-10.5 29.2h-12.5l39.9-106.9h5.7l40 106.9H245l-10.7-29.2zm-34.6-10.8h30.8l-11.7-32-3.7-15.9h-.1l-3.7 16.2-11.6 31.7zM281.9 52.6v42.9c0 3.9.2 7.3.7 10.3.5 3 1.2 5.4 2.3 7.4 1.1 2 2.6 3.4 4.5 4.4 1.9 1 4.3 1.5 7.2 1.5 2.7 0 5.1-.4 7.2-1.3 2.1-.9 4-2 5.6-3.5s3.1-3.2 4.4-5.2c1.3-2 2.3-4 3.1-6.2V52.6h12v53.8c0 3.6.1 7.3.4 11.2.3 3.9.7 7.2 1.3 10.2h-8.3l-3-11.9h-.8c-2.3 3.9-5.4 7.2-9.3 9.8s-8.9 3.9-14.9 3.9c-4 0-7.5-.5-10.6-1.4-3.1-1-5.6-2.6-7.7-5-2.1-2.4-3.6-5.6-4.7-9.7s-1.6-9.2-1.6-15.4V52.6h12.2zM387.6 64.2c-3-1-5.9-1.5-8.6-1.5-4.3 0-7.7 1.2-10.2 3.5-2.5 2.4-4.1 5.3-4.7 8.9v52.6h-12V52.6h8.4l2.3 9.2h.6c1.9-3.4 4.2-6 6.8-7.9 2.7-1.9 6-2.8 10.2-2.8 2.9 0 6.2.5 9.8 1.5l-2.6 11.6zM402.1 58.2c3.8-2.3 8.2-4 13.3-5.1 5.1-1.1 10.4-1.7 15.9-1.7 5.2 0 9.4.7 12.6 2.1 3.2 1.4 5.6 3.2 7.2 5.5 1.7 2.3 2.8 4.7 3.3 7.4s.8 5.4.8 8.1c0 6-.2 11.9-.5 17.6-.3 5.7-.5 11.1-.5 16.2 0 3.7.2 7.2.5 10.5s.9 6.4 1.7 9.2h-8.9l-3.2-10.5h-.8c-.9 1.4-2 2.8-3.4 4.1s-3 2.6-4.9 3.6c-1.9 1.1-4.1 1.9-6.6 2.6-2.5.7-5.4 1.1-8.6 1.1-3.2 0-6.2-.5-8.9-1.5-2.8-1-5.1-2.4-7.1-4.3s-3.6-4.1-4.7-6.7c-1.2-2.6-1.7-5.6-1.7-8.9 0-4.4.9-8.1 2.7-11.1 1.8-3 4.3-5.3 7.6-7.1 3.3-1.8 7.2-3 11.7-3.8 4.6-.8 9.6-1.1 15.1-1.1h4.1c1.3 0 2.7.1 4.1.3.3-3 .5-5.7.5-8.1 0-5.5-1.1-9.4-3.3-11.6-2.2-2.2-6.2-3.3-12-3.3-1.7 0-3.5.1-5.5.4-2 .3-4 .6-6 1.1-2.1.5-4 1-5.9 1.7-1.9.7-3.5 1.4-4.9 2.2l-3.7-8.9zm21.3 60.3c2.8 0 5.3-.4 7.5-1.1 2.2-.8 4.1-1.7 5.7-2.9 1.6-1.2 2.9-2.4 4-3.8s1.8-2.8 2.3-4.1V94.1c-1.4-.1-2.8-.2-4.3-.2s-2.9-.1-4.3-.1c-3.1 0-6.1.2-9.1.5-3 .4-5.6 1-7.8 2-2.3 1-4.1 2.3-5.4 3.9s-2 3.7-2 6.2c0 3.5 1.3 6.4 3.8 8.6 2.5 2.3 5.7 3.5 9.6 3.5zM510.9 107.3c0-3-.9-5.4-2.7-7.1-1.8-1.7-4-3.1-6.7-4.3-2.7-1.2-5.6-2.3-8.7-3.3-3.2-1.1-6.1-2.4-8.7-4.1-2.7-1.7-4.9-3.8-6.7-6.4-1.8-2.6-2.7-6.1-2.7-10.5 0-7.2 2.1-12.5 6.2-15.9 4.1-3.4 9.8-5 17.1-5 5.4 0 10 .5 13.6 1.4 3.7 1 6.8 2.1 9.6 3.4l-2.9 9.9c-2.3-1.1-5.1-2.1-8.3-2.9-3.3-.9-6.7-1.3-10.5-1.3-4.4 0-7.6.8-9.7 2.3-2.1 1.5-3.1 4.1-3.1 7.8 0 2.6.9 4.6 2.7 6.1 1.8 1.5 4 2.8 6.7 3.9 2.7 1.2 5.6 2.3 8.7 3.4 3.2 1.1 6.1 2.6 8.7 4.4 2.7 1.8 4.9 4.1 6.7 6.8 1.8 2.8 2.7 6.4 2.7 10.9 0 3.2-.5 6.2-1.6 9s-2.7 5.2-4.9 7.2-4.9 3.6-8.2 4.7c-3.3 1.2-7.1 1.7-11.5 1.7-5.7 0-10.6-.6-14.6-1.7s-7.4-2.4-10.1-3.9l3.6-10.2c2.3 1.3 5.3 2.5 9 3.6s7.5 1.7 11.3 1.7c4.3 0 7.9-.9 10.7-2.6 2.9-1.5 4.3-4.5 4.3-9zM574.3 107.3c0-3-.9-5.4-2.7-7.1-1.8-1.7-4-3.1-6.7-4.3-2.7-1.2-5.6-2.3-8.7-3.3-3.2-1.1-6.1-2.4-8.7-4.1-2.7-1.7-4.9-3.8-6.7-6.4-1.8-2.6-2.7-6.1-2.7-10.5 0-7.2 2.1-12.5 6.2-15.9 4.1-3.4 9.8-5 17.1-5 5.4 0 10 .5 13.6 1.4 3.7 1 6.8 2.1 9.6 3.4l-2.9 9.9c-2.3-1.1-5.1-2.1-8.3-2.9-3.3-.9-6.7-1.3-10.5-1.3-4.4 0-7.6.8-9.7 2.3-2.1 1.5-3.1 4.1-3.1 7.8 0 2.6.9 4.6 2.7 6.1 1.8 1.5 4 2.8 6.7 3.9 2.7 1.2 5.6 2.3 8.7 3.4 3.2 1.1 6.1 2.6 8.7 4.4 2.7 1.8 4.9 4.1 6.7 6.8 1.8 2.8 2.7 6.4 2.7 10.9 0 3.2-.5 6.2-1.6 9s-2.7 5.2-4.9 7.2-4.9 3.6-8.2 4.7c-3.3 1.2-7.1 1.7-11.5 1.7-5.7 0-10.6-.6-14.6-1.7s-7.4-2.4-10.1-3.9l3.6-10.2c2.3 1.3 5.3 2.5 9 3.6s7.5 1.7 11.3 1.7c4.3 0 7.9-.9 10.7-2.6 2.9-1.5 4.3-4.5 4.3-9zM615.3 52.6v42.9c0 3.9.2 7.3.7 10.3.5 3 1.2 5.4 2.3 7.4 1.1 2 2.6 3.4 4.5 4.4 1.9 1 4.3 1.5 7.2 1.5 2.7 0 5.1-.4 7.2-1.3 2.1-.9 4-2 5.6-3.5s3.1-3.2 4.4-5.2c1.3-2 2.3-4 3.1-6.2V52.6h12v53.8c0 3.6.1 7.3.4 11.2.3 3.9.7 7.2 1.3 10.2h-8.3l-3-11.9h-.7c-2.3 3.9-5.4 7.2-9.3 9.8s-8.9 3.9-14.9 3.9c-4 0-7.5-.5-10.6-1.4-3.1-1-5.6-2.6-7.7-5-2.1-2.4-3.6-5.6-4.7-9.7s-1.6-9.2-1.6-15.4V52.6h12.1zM721.1 64.2c-3-1-5.9-1.5-8.6-1.5-4.3 0-7.7 1.2-10.2 3.5-2.5 2.4-4.1 5.3-4.7 8.9v52.6h-12V52.6h8.4l2.3 9.2h.6c1.9-3.4 4.2-6 6.8-7.9 2.7-1.9 6-2.8 10.2-2.8 2.9 0 6.2.5 9.8 1.5l-2.6 11.6zM791.6 121.8c-3 2.4-6.8 4.3-11.4 5.7-4.6 1.4-9.4 2.1-14.5 2.1-5.7 0-10.7-.9-14.9-2.8-4.2-1.9-7.7-4.5-10.4-8s-4.7-7.6-6-12.4c-1.3-4.8-2-10.2-2-16.2 0-12.8 2.9-22.6 8.6-29.3 5.7-6.7 13.9-10.1 24.5-10.1 3.4 0 6.8.4 10.2 1.1 3.4.8 6.5 2.2 9.2 4.3s4.9 5.1 6.6 8.9c1.7 3.9 2.6 8.9 2.6 15.3 0 3.3-.3 7-.9 11H745c0 4.4.5 8.3 1.4 11.7.9 3.4 2.3 6.3 4.2 8.6 1.9 2.4 4.4 4.2 7.4 5.4 3.1 1.3 6.8 1.9 11.2 1.9 3.4 0 6.8-.6 10.2-1.8 3.4-1.2 6-2.6 7.7-4.2l4.5 8.8zm-25.9-60.5c-5.9 0-10.7 1.6-14.2 4.7-3.6 3.1-5.7 8.4-6.4 15.9h37.3c0-7.6-1.5-13-4.4-16-2.9-3-7-4.6-12.3-4.6z"/></g></svg>