<svg xmlns="http://www.w3.org/2000/svg" viewBox="0 0 551.5 385"><g data-name="Layer 2"><g data-name="Layer 1"><g data-name="Layer 2"><g data-name="Layer 1-2" fill="#26b056"><path d="M539.2 379.3h-31.3a6.6 6.6 0 0 1-5-2.1l-15-16.3a6.6 6.6 0 0 1-1.7-4.5v-217a6.6 6.6 0 0 1 .5-2.4l8-21a6.6 6.6 0 0 1 6-4.4l38.3-1a6.6 6.6 0 0 1 6.8 6.7v255.4a6.6 6.6 0 0 1-6.6 6.6zM509 370h27.3V120.3l-33.6.8-7.1 18.8v215.4zm-13.6-229.5z"/><path d="M539.2 385h-31.3a12.3 12.3 0 0 1-9-4l-15-16.3a12.3 12.3 0 0 1-3.3-8.4v-217a12.3 12.3 0 0 1 .8-4.3l8-21.1a12.3 12.3 0 0 1 11.1-8l38.4-1a12.3 12.3 0 0 1 12.6 12.3v255.5a12.3 12.3 0 0 1-12.3 12.3zm-27.6-20.8h19V126l-23.9.6-5.3 14.3v212.1zM418.1 372.7H157.8a6.6 6.6 0 0 1-4.7-2l-18.6-18.6a6.6 6.6 0 0 1-1.2-1.6l-16-30.8H58.5a6.6 6.6 0 0 1-4.7-2l-12.1-12a6.6 6.6 0 0 1-2-4.7V161.8a6.6 6.6 0 0 1 6.6-6.7h69.1V123a6.6 6.6 0 0 1 6.6-6.6h76.6v-36h-36.8a6.6 6.6 0 0 1-6.7-6.6V12.3a6.6 6.6 0 0 1 6.7-6.6h173a6.6 6.6 0 0 1 6.7 6.6v61.5a6.6 6.6 0 0 1-6.6 6.6h-27.5v36h64.4a6.6 6.6 0 0 1 6.6 6.6V155H420a6.6 6.6 0 0 1 6.6 6.7v19.7l15.1 15.2a6.6 6.6 0 0 1 2 4.7v105.2a6.6 6.6 0 0 1-2 4.7l-17 17V366a6.6 6.6 0 0 1-6.6 6.7zM159 363.2h256.3v-36a6.6 6.6 0 0 1 2-4.7l17-17v-103L419 187.4a6.6 6.6 0 0 1-2-4.7v-18.1h-41.6a6.6 6.6 0 0 1-6.6-6.6v-32.2h-64.3a6.6 6.6 0 0 1-6.6-6.6V70.9h34V15.2H164.6V71H208v48.2a6.6 6.6 0 0 1-6.6 6.6h-76.6V158a6.6 6.6 0 0 1-6.7 6.6h-69v135.2l10.5 10.5H119a6.6 6.6 0 0 1 5.9 3.5l16.6 32z"/><path d="M418.1 378.4H157.8a12.2 12.2 0 0 1-8.7-3.6L130.5 356a12.3 12.3 0 0 1-2.2-3l-14.5-27.7H58.5a12.5 12.5 0 0 1-8.7-3.6l-12.1-12.1A12.2 12.2 0 0 1 34 301V161.8a12.3 12.3 0 0 1 12.3-12.3h63.4V123a12.3 12.3 0 0 1 12.3-12.3h71V86.1h-31.2a12.3 12.3 0 0 1-12.3-12.3V12.3A12.3 12.3 0 0 1 161.8 0h173a12.3 12.3 0 0 1 12.4 12.3v61.5A12.3 12.3 0 0 1 334.9 86H313v24.6h58.7A12.3 12.3 0 0 1 384 123v26.5H420a12.3 12.3 0 0 1 12.3 12.3v17.4l13.4 13.5a12.2 12.2 0 0 1 3.6 8.7v105.2a12.2 12.2 0 0 1-3.6 8.7l-15.3 15.4v35.4a12.3 12.3 0 0 1-12.3 12.3zm-256.8-20.8h248.3V327a12.2 12.2 0 0 1 3.6-8.7l15.3-15.3v-98.3l-13.4-13.4a12.2 12.2 0 0 1-3.6-8.7v-12.4h-36a12.3 12.3 0 0 1-12.3-12.3v-26.5h-58.6a12.3 12.3 0 0 1-12.3-12.3v-54h34V20.9h-156v44.5h43.5v53.9a12.3 12.3 0 0 1-12.3 12.3h-71V158a12.3 12.3 0 0 1-12.3 12.3H55v127.1l7.1 7.2h57a12.3 12.3 0 0 1 11 6.6l16.1 31.1z"/><path d="M487.2 310.3h-44.5V198.6h44.5zm-35-9.5h25.5v-92.7h-25.5z"/><path d="M492.8 316H437V193h55.8zm-35-20.9H472v-81.3h-14.2zM5.7 185.4H17v85.1H5.7z"/><path d="M0 179.7h22.7v96.5H0z"/><path d="M16.1 223.2h23.6v9.5H16.1z"/><path d="M10.4 217.6h35v20.8h-35zM201.5 116.3h101.2v9.5H201.5z"/><path d="M195.8 110.7h112.6v20.8H195.8zM201.5 71h101.2v9.5H201.5z"/><path d="M195.8 65.3h112.6v20.8H195.8zM115.4 159.9h9.5V315h-9.5z"/><path d="M109.7 154.2h20.8v166.5h-20.8z"/></g></g></g></g></svg>