<svg xmlns="http://www.w3.org/2000/svg" version="1" viewBox="0 0 500 500">
  <path fill="orange" d="M260.5 52.1c2.9 2.5 3.6 5.6 3.5 9.4-.2 13.7-.1 27.5-.1 41.2 0 1.5.4 3.4-.3 4.4-1.4 1.8-3.4 3.9-5.4 4.5-2.9.7-5.2-1.4-5.8-4.4-.4-2-.3-4.1-.3-6.1 0-13.2.1-26.4-.1-39.6 0-3.7.6-6.9 3.6-9.4h4.9zM255.6 470c-3-2.4-3.6-5.6-3.6-9.4.2-13.7.1-27.5.1-41.2 0-1.4 0-2.7.2-4.1.6-3.3 2.6-5 5.9-5 3.1.1 5.1 1.9 5.5 4.9.3 2 .2 4.1.2 6.1 0 13.1-.1 26.1.1 39.2 0 3.7-.6 6.9-3.5 9.4l-4.9.1zM49.1 258.6c2.5-2.9 5.6-3.6 9.4-3.5 13.7.2 27.5.1 41.2.1 1.4 0 2.7-.1 4.1.2 3.3.6 5 2.7 4.9 5.9-.1 3.1-1.8 5.2-4.9 5.5-2.6.3-5.2.2-7.7.2-12.5 0-25-.1-37.5.1-3.7.1-6.9-.7-9.4-3.5l-.1-5zm417.9 4.1c-1.6 2.8-3.8 4.4-7.2 4.3h-45.6c-3.2 0-6-1.1-6.4-4.3-.3-2 1-4.6 2.3-6.3.7-1 3-1.1 4.5-1.1l44.8-.1c3.5 0 6 1.3 7.6 4.3v3.2zM155 370.5c-1.4 2.2-2.1 4-3.4 5.3a4827.2 4827.2 0 0 1-32 32c-3.3 3.2-6.7 3.4-9.3.7-2.6-2.6-2.3-6 1-9.3l31.7-31.8c2.1-2.1 4.7-3.8 7.6-2 1.8 1.2 2.9 3.3 4.4 5.1zm247.1 40.8c-2.4-1.4-4.3-2.2-5.7-3.5-10.8-10.6-21.4-21.3-32-32-3.2-3.3-3.4-6.8-.7-9.3 2.6-2.5 5.9-2.3 9.1.8 10.8 10.7 21.6 21.4 32.2 32.4 1.5 1.5 2.2 4.7 1.9 6.9-.4 1.7-3 3-4.8 4.7zm-288-300.6c2.3 1.4 4.1 2.1 5.4 3.3 10.8 10.7 21.6 21.4 32.3 32.3 3.1 3.1 3.2 6.5.7 9-2.5 2.6-5.9 2.5-9-.5-10.9-10.8-21.9-21.6-32.5-32.7-1.5-1.5-2.1-4.8-1.6-6.9.3-1.6 2.9-2.8 4.7-4.5zm294.2 6.5c-1.4 2.3-2.1 4.1-3.4 5.3a4827.2 4827.2 0 0 1-32 32c-3.3 3.3-6.7 3.5-9.4.9-2.6-2.6-2.4-6 .9-9.3l32-32c2.1-2.1 4.6-3.5 7.3-1.9 1.9 1 3 3.1 4.6 5zM257.9 160.7a100.7 100.7 0 0 1 100.4 100.1 100.8 100.8 0 0 1-100.4 100.5A100.7 100.7 0 0 1 157.7 261c0-55 45.1-100.1 100.2-100.3z"/>
</svg>
