<svg id="Layer_1" data-name="Layer 1" xmlns="http://www.w3.org/2000/svg" viewBox="0 0 200 200"><defs><style>.cls-1{fill:#25af56}</style></defs><path class="cls-1" d="M102.5 194a70.1 70.1 0 0 1-70-70.1c0-27.6 18.2-51 37.6-75.7C79.6 36.1 89.5 23.5 97.5 10a5.8 5.8 0 0 1 5-2.9 5.9 5.9 0 0 1 5 2.9c8 13.5 17.8 26.1 27.4 38.3 19.3 24.7 37.6 48 37.6 75.6a70.1 70.1 0 0 1-70 70zm0-170a467 467 0 0 1-23.2 31.5C61.2 78.5 44 100.3 44 123.9a58.4 58.4 0 0 0 116.8 0c0-23.6-17-45.4-35.2-68.4A468 468 0 0 1 102.5 24z"/><path class="cls-1" d="M88.8 168.7a7.2 7.2 0 0 1-1.6-.2c-32.8-7.7-35.2-40-31.9-55.8a7.3 7.3 0 0 1 14.3 3c-.7 3.3-5.8 32.4 21 38.7a7.3 7.3 0 0 1-1.8 14.3z"/><path class="cls-1" d="M104.8 195a71.5 71.5 0 0 1-71.5-71.4c0-28.1 18.7-51.9 38.4-77a369.2 369.2 0 0 0 28-39 6 6 0 0 1 5-3 6 6 0 0 1 5.2 3c8.1 13.7 18.2 26.5 28 39 19.6 25.1 38.3 49 38.3 77a71.5 71.5 0 0 1-71.4 71.5zm0-173.2A457.7 457.7 0 0 1 81 54c-18.5 23.5-35.9 45.7-35.9 69.8a59.5 59.5 0 0 0 119 0c0-24-17.3-46.3-35.8-69.8-8-10.3-16.3-20.8-23.7-32z"/><path class="cls-1" d="M90.8 169.4a7.3 7.3 0 0 1-1.7-.2c-33.4-7.9-35.8-40.7-32.4-57a7.4 7.4 0 0 1 14.5 3c-.7 3.4-5.9 33 21.3 39.5a7.4 7.4 0 0 1-1.7 14.7z"/></svg>