<svg xmlns="http://www.w3.org/2000/svg" xmlns:xlink="http://www.w3.org/1999/xlink" viewBox="0 0 768.8 238"><defs><style>.cls-14{isolation:isolate}.cls-6{fill:#ff7445}.cls-7{fill:#a1a1a1}.cls-9{fill:#f7931e}.cls-10{fill:#595651}.cls-11{fill:#abaaaa}.cls-14{opacity:.6}.cls-15{fill:#b2eded}.cls-23{fill:#caeaed}.cls-24{fill:#b5d2d3}.cls-33{fill:#dccfcd}.cls-35{fill:#fff}.cls-39{fill:#3a4444}.cls-40{fill:#505e5e}.cls-41{fill:#252b2b}.cls-45{fill:#857d7b}.cls-46{fill:#524c4b}.cls-138{fill:#2a8cb8}.cls-139{fill:#155c7d}.cls-150{fill:#ffcda3}.cls-158{opacity:.05}</style><clipPath id="clip-path"><path transform="rotate(-7.9 28.6 208.1)" fill="none" d="M5 189h47.2v38.1H5z"/></clipPath><linearGradient id="linear-gradient" x1="16.5" y1="251.8" x2="68.6" y2="251.8" gradientTransform="rotate(-7.9 -259.3 375.5)" gradientUnits="userSpaceOnUse"><stop offset="0" stop-color="#fff"/><stop offset=".1" stop-color="#ffedd8"/><stop offset=".2" stop-color="#ffd5a7"/><stop offset=".3" stop-color="#ffc17d"/><stop offset=".5" stop-color="#ffb05b"/><stop offset=".6" stop-color="#ffa340"/><stop offset=".7" stop-color="#ff9a2d"/><stop offset=".9" stop-color="#ff9522"/><stop offset="1" stop-color="#ff931e"/></linearGradient><linearGradient id="linear-gradient-2" x1="691.4" y1="174" x2="728.7" y2="174" gradientUnits="userSpaceOnUse"><stop offset="0" stop-color="#dae6ed"/><stop offset=".2" stop-color="#b6cee8"/><stop offset=".6" stop-color="#8bb2e3"/><stop offset=".8" stop-color="#71a0df"/><stop offset="1" stop-color="#679ade"/></linearGradient><linearGradient id="linear-gradient-3" x1="710.5" y1="175.4" x2="711.6" y2="175.4" xlink:href="#linear-gradient-2"/><linearGradient id="linear-gradient-4" x1="716.9" y1="164.4" x2="718.4" y2="164.4" xlink:href="#linear-gradient-2"/><linearGradient id="linear-gradient-5" x1="723.3" y1="153.5" x2="725.1" y2="153.5" xlink:href="#linear-gradient-2"/><linearGradient id="linear-gradient-6" x1="697.8" y1="197.4" x2="698.1" y2="197.4" xlink:href="#linear-gradient-2"/><linearGradient id="linear-gradient-7" x1="704.1" y1="186.4" x2="704.9" y2="186.4" xlink:href="#linear-gradient-2"/><linearGradient id="linear-gradient-8" x1="104.1" y1="95" x2="160.1" y2="95" xlink:href="#linear-gradient-2"/><linearGradient id="linear-gradient-9" x1="101.2" y1="112.7" x2="105.9" y2="112.7" xlink:href="#linear-gradient-2"/><linearGradient id="linear-gradient-10" x1="109.4" y1="112.7" x2="114" y2="112.7" xlink:href="#linear-gradient-2"/><linearGradient id="linear-gradient-11" x1="117.5" y1="112.7" x2="122.2" y2="112.7" xlink:href="#linear-gradient-2"/><linearGradient id="linear-gradient-12" x1="125.6" y1="112.7" x2="130.3" y2="112.7" xlink:href="#linear-gradient-2"/><linearGradient id="linear-gradient-13" x1="133.8" y1="112.7" x2="138.4" y2="112.7" xlink:href="#linear-gradient-2"/><linearGradient id="linear-gradient-14" x1="141.9" y1="112.7" x2="146.6" y2="112.7" xlink:href="#linear-gradient-2"/><linearGradient id="linear-gradient-15" x1="150" y1="112.7" x2="154.7" y2="112.7" xlink:href="#linear-gradient-2"/><linearGradient id="linear-gradient-16" x1="158.2" y1="112.7" x2="162.8" y2="112.7" xlink:href="#linear-gradient-2"/><linearGradient id="linear-gradient-17" x1="317.5" y1="161.2" x2="385.9" y2="161.2" gradientUnits="userSpaceOnUse"><stop offset="0" stop-color="#dae6ed"/><stop offset=".2" stop-color="#b6cee8"/><stop offset=".5" stop-color="#71a0df"/><stop offset=".6" stop-color="#8bb2e3"/><stop offset="1" stop-color="#679ade"/></linearGradient><linearGradient id="linear-gradient-18" x1="436" y1="148.3" x2="504.4" y2="148.3" xlink:href="#linear-gradient-17"/><linearGradient id="linear-gradient-19" x1="140.7" y1="203" x2="154.8" y2="203" xlink:href="#linear-gradient-2"/><linearGradient id="linear-gradient-20" x1="568.5" y1="164.2" x2="621.3" y2="164.2" gradientUnits="userSpaceOnUse"><stop offset="0" stop-color="#dae6ed"/><stop offset=".1" stop-color="#d4e2ec"/><stop offset=".5" stop-color="#a9c6e4"/><stop offset=".8" stop-color="#8fb5e0"/><stop offset="1" stop-color="#85afde"/></linearGradient><radialGradient id="radial-gradient" cx="273.5" cy="189.2" r="4.2" xlink:href="#linear-gradient-17"/><radialGradient id="radial-gradient-2" cx="273.5" cy="179.3" r="4.2" xlink:href="#linear-gradient-17"/><radialGradient id="radial-gradient-3" cx="273.5" cy="169.3" r="4.2" xlink:href="#linear-gradient-17"/><radialGradient id="radial-gradient-4" cx="273.5" cy="159.4" r="4.2" xlink:href="#linear-gradient-17"/><radialGradient id="radial-gradient-5" cx="273.5" cy="149.4" r="4.2" xlink:href="#linear-gradient-17"/><radialGradient id="radial-gradient-6" cx="273.5" cy="139.5" r="4.2" xlink:href="#linear-gradient-17"/><radialGradient id="radial-gradient-7" cx="273.5" cy="129.6" r="4.2" xlink:href="#linear-gradient-17"/><radialGradient id="radial-gradient-8" cx="273.5" cy="119.7" r="4.2" xlink:href="#linear-gradient-17"/><radialGradient id="radial-gradient-9" cx="273.5" cy="109.7" r="4.2" xlink:href="#linear-gradient-17"/><radialGradient id="radial-gradient-10" cx="273.5" cy="99.8" r="4.2" xlink:href="#linear-gradient-17"/><radialGradient id="radial-gradient-11" cx="273.5" cy="89.8" r="4.2" xlink:href="#linear-gradient-17"/><radialGradient id="radial-gradient-12" cx="273.5" cy="79.9" r="4.2" xlink:href="#linear-gradient-17"/><radialGradient id="radial-gradient-13" cx="273.5" cy="70" r="4.2" xlink:href="#linear-gradient-17"/><radialGradient id="radial-gradient-14" cx="273.5" cy="60" r="4.2" xlink:href="#linear-gradient-17"/><radialGradient id="radial-gradient-15" cx="273.5" cy="50.1" r="4.2" xlink:href="#linear-gradient-17"/><radialGradient id="radial-gradient-16" cx="263.8" cy="189.2" r="4.2" xlink:href="#linear-gradient-17"/><radialGradient id="radial-gradient-17" cx="263.8" cy="179.3" r="4.2" xlink:href="#linear-gradient-17"/><radialGradient id="radial-gradient-18" cx="263.8" cy="169.3" r="4.2" xlink:href="#linear-gradient-17"/><radialGradient id="radial-gradient-19" cx="263.8" cy="159.4" r="4.2" xlink:href="#linear-gradient-17"/><radialGradient id="radial-gradient-20" cx="263.8" cy="149.4" r="4.2" xlink:href="#linear-gradient-17"/><radialGradient id="radial-gradient-21" cx="263.8" cy="139.5" r="4.2" xlink:href="#linear-gradient-17"/><radialGradient id="radial-gradient-22" cx="263.8" cy="129.6" r="4.2" xlink:href="#linear-gradient-17"/><radialGradient id="radial-gradient-23" cx="263.8" cy="119.7" r="4.2" xlink:href="#linear-gradient-17"/><radialGradient id="radial-gradient-24" cx="263.8" cy="109.7" r="4.2" xlink:href="#linear-gradient-17"/><radialGradient id="radial-gradient-25" cx="263.8" cy="99.8" r="4.2" xlink:href="#linear-gradient-17"/><radialGradient id="radial-gradient-26" cx="263.8" cy="89.8" r="4.2" xlink:href="#linear-gradient-17"/><radialGradient id="radial-gradient-27" cx="263.8" cy="79.9" r="4.2" xlink:href="#linear-gradient-17"/><radialGradient id="radial-gradient-28" cx="263.8" cy="70" r="4.2" xlink:href="#linear-gradient-17"/><radialGradient id="radial-gradient-29" cx="263.8" cy="60" r="4.2" xlink:href="#linear-gradient-17"/><radialGradient id="radial-gradient-30" cx="263.8" cy="50.1" r="4.2" xlink:href="#linear-gradient-17"/><radialGradient id="radial-gradient-31" cx="254.1" cy="189.2" r="4.2" xlink:href="#linear-gradient-17"/><radialGradient id="radial-gradient-32" cx="254.1" cy="179.3" r="4.2" xlink:href="#linear-gradient-17"/><radialGradient id="radial-gradient-33" cx="254.1" cy="169.3" r="4.2" xlink:href="#linear-gradient-17"/><radialGradient id="radial-gradient-34" cx="254.1" cy="159.4" r="4.2" xlink:href="#linear-gradient-17"/><radialGradient id="radial-gradient-35" cx="254.1" cy="149.4" r="4.2" xlink:href="#linear-gradient-17"/><radialGradient id="radial-gradient-36" cx="254.1" cy="139.5" r="4.2" xlink:href="#linear-gradient-17"/><radialGradient id="radial-gradient-37" cx="254.1" cy="129.6" r="4.2" xlink:href="#linear-gradient-17"/><radialGradient id="radial-gradient-38" cx="254.1" cy="119.7" r="4.2" xlink:href="#linear-gradient-17"/><radialGradient id="radial-gradient-39" cx="254.1" cy="109.7" r="4.2" xlink:href="#linear-gradient-17"/><radialGradient id="radial-gradient-40" cx="254.1" cy="99.8" r="4.2" xlink:href="#linear-gradient-17"/><radialGradient id="radial-gradient-41" cx="254.1" cy="89.8" r="4.2" xlink:href="#linear-gradient-17"/><radialGradient id="radial-gradient-42" cx="254.1" cy="79.9" r="4.2" xlink:href="#linear-gradient-17"/><radialGradient id="radial-gradient-43" cx="254.1" cy="70" r="4.2" xlink:href="#linear-gradient-17"/><radialGradient id="radial-gradient-44" cx="254.1" cy="60" r="4.2" xlink:href="#linear-gradient-17"/><radialGradient id="radial-gradient-45" cx="254.1" cy="50.1" r="4.2" xlink:href="#linear-gradient-17"/><radialGradient id="radial-gradient-46" cx="244.4" cy="189.2" r="4.2" xlink:href="#linear-gradient-17"/><radialGradient id="radial-gradient-47" cx="244.4" cy="179.3" r="4.2" xlink:href="#linear-gradient-17"/><radialGradient id="radial-gradient-48" cx="244.4" cy="169.3" r="4.2" xlink:href="#linear-gradient-17"/><radialGradient id="radial-gradient-49" cx="244.4" cy="159.4" r="4.2" xlink:href="#linear-gradient-17"/><radialGradient id="radial-gradient-50" cx="244.4" cy="149.4" r="4.2" xlink:href="#linear-gradient-17"/><radialGradient id="radial-gradient-51" cx="244.4" cy="139.5" r="4.2" xlink:href="#linear-gradient-17"/><radialGradient id="radial-gradient-52" cx="244.4" cy="129.6" r="4.2" xlink:href="#linear-gradient-17"/><radialGradient id="radial-gradient-53" cx="244.4" cy="119.7" r="4.2" xlink:href="#linear-gradient-17"/><radialGradient id="radial-gradient-54" cx="244.4" cy="109.7" r="4.2" xlink:href="#linear-gradient-17"/><radialGradient id="radial-gradient-55" cx="244.4" cy="99.8" r="4.2" xlink:href="#linear-gradient-17"/><radialGradient id="radial-gradient-56" cx="244.4" cy="89.8" r="4.2" xlink:href="#linear-gradient-17"/><radialGradient id="radial-gradient-57" cx="244.4" cy="79.9" r="4.2" xlink:href="#linear-gradient-17"/><radialGradient id="radial-gradient-58" cx="244.4" cy="70" r="4.2" xlink:href="#linear-gradient-17"/><radialGradient id="radial-gradient-59" cx="244.4" cy="60" r="4.2" xlink:href="#linear-gradient-17"/><radialGradient id="radial-gradient-60" cx="244.4" cy="50.1" r="4.2" xlink:href="#linear-gradient-17"/><radialGradient id="radial-gradient-61" cx="234.7" cy="189.2" r="4.2" xlink:href="#linear-gradient-17"/><radialGradient id="radial-gradient-62" cx="234.7" cy="179.3" r="4.2" xlink:href="#linear-gradient-17"/><radialGradient id="radial-gradient-63" cx="234.7" cy="169.3" r="4.2" xlink:href="#linear-gradient-17"/><radialGradient id="radial-gradient-64" cx="234.7" cy="159.4" r="4.2" xlink:href="#linear-gradient-17"/><radialGradient id="radial-gradient-65" cx="234.7" cy="149.4" r="4.2" xlink:href="#linear-gradient-17"/><radialGradient id="radial-gradient-66" cx="234.7" cy="139.5" r="4.2" xlink:href="#linear-gradient-17"/><radialGradient id="radial-gradient-67" cx="234.7" cy="129.6" r="4.2" xlink:href="#linear-gradient-17"/><radialGradient id="radial-gradient-68" cx="234.7" cy="119.7" r="4.2" xlink:href="#linear-gradient-17"/><radialGradient id="radial-gradient-69" cx="234.7" cy="109.7" r="4.2" xlink:href="#linear-gradient-17"/><radialGradient id="radial-gradient-70" cx="234.7" cy="99.8" r="4.2" xlink:href="#linear-gradient-17"/><radialGradient id="radial-gradient-71" cx="234.7" cy="89.8" r="4.2" xlink:href="#linear-gradient-17"/><radialGradient id="radial-gradient-72" cx="234.7" cy="79.9" r="4.2" xlink:href="#linear-gradient-17"/><radialGradient id="radial-gradient-73" cx="234.7" cy="70" r="4.2" xlink:href="#linear-gradient-17"/><radialGradient id="radial-gradient-74" cx="234.7" cy="60" r="4.2" xlink:href="#linear-gradient-17"/><radialGradient id="radial-gradient-75" cx="234.7" cy="50.1" r="4.2" xlink:href="#linear-gradient-17"/><radialGradient id="radial-gradient-76" cx="225" cy="189.2" r="4.2" xlink:href="#linear-gradient-17"/><radialGradient id="radial-gradient-77" cx="225" cy="179.3" r="4.2" xlink:href="#linear-gradient-17"/><radialGradient id="radial-gradient-78" cx="225" cy="169.3" r="4.2" xlink:href="#linear-gradient-17"/><radialGradient id="radial-gradient-79" cx="225" cy="159.4" r="4.2" xlink:href="#linear-gradient-17"/><radialGradient id="radial-gradient-80" cx="225" cy="149.4" r="4.2" xlink:href="#linear-gradient-17"/><radialGradient id="radial-gradient-81" cx="225" cy="139.5" r="4.2" xlink:href="#linear-gradient-17"/><radialGradient id="radial-gradient-82" cx="225" cy="129.6" r="4.2" xlink:href="#linear-gradient-17"/><radialGradient id="radial-gradient-83" cx="225" cy="119.7" r="4.2" xlink:href="#linear-gradient-17"/><radialGradient id="radial-gradient-84" cx="225" cy="109.7" r="4.2" xlink:href="#linear-gradient-17"/><radialGradient id="radial-gradient-85" cx="225" cy="99.8" r="4.2" xlink:href="#linear-gradient-17"/><radialGradient id="radial-gradient-86" cx="225" cy="89.8" r="4.2" xlink:href="#linear-gradient-17"/><radialGradient id="radial-gradient-87" cx="225" cy="79.9" r="4.2" xlink:href="#linear-gradient-17"/><radialGradient id="radial-gradient-88" cx="225" cy="70" r="4.2" xlink:href="#linear-gradient-17"/><radialGradient id="radial-gradient-89" cx="225" cy="60" r="4.2" xlink:href="#linear-gradient-17"/><radialGradient id="radial-gradient-90" cx="225" cy="50.1" r="4.2" xlink:href="#linear-gradient-17"/><linearGradient id="linear-gradient-21" x1="455.4" y1="202.9" x2="470.8" y2="202.9" gradientTransform="rotate(75 463.1 202.9)" gradientUnits="userSpaceOnUse"><stop offset="0" stop-color="#2598ac"/><stop offset=".1" stop-color="#2c9ea8"/><stop offset=".7" stop-color="#49b896"/><stop offset="1" stop-color="#54c290"/></linearGradient><linearGradient id="linear-gradient-22" x1="447.9" y1="207.8" x2="461.2" y2="207.8" gradientTransform="rotate(34.5 454.6 207.8)" xlink:href="#linear-gradient-21"/><linearGradient id="linear-gradient-23" x1="467.5" y1="200.6" x2="478.7" y2="200.6" gradientTransform="rotate(37.5 473.1 200.6)" xlink:href="#linear-gradient-21"/><linearGradient id="linear-gradient-24" x1="287.9" y1="210.9" x2="297.9" y2="210.9" gradientTransform="rotate(75 292.9 211)" xlink:href="#linear-gradient-21"/><linearGradient id="linear-gradient-25" x1="282.9" y1="214.2" x2="291.6" y2="214.2" gradientTransform="rotate(34.5 287.3 214.2)" xlink:href="#linear-gradient-21"/><linearGradient id="linear-gradient-26" x1="295.7" y1="209.5" x2="303.1" y2="209.5" gradientTransform="rotate(37.5 299.4 209.5)" xlink:href="#linear-gradient-21"/><linearGradient id="linear-gradient-27" x1="69.5" y1="203.2" x2="85.6" y2="203.2" gradientTransform="rotate(23.1 77.5 203.1)" xlink:href="#linear-gradient-21"/><linearGradient id="linear-gradient-28" x1="80.4" y1="206.8" x2="93.1" y2="206.8" gradientTransform="rotate(63.5 86.7 206.9)" xlink:href="#linear-gradient-21"/><linearGradient id="linear-gradient-29" x1="66.3" y1="210.5" x2="75.9" y2="210.5" gradientTransform="rotate(60.7 71.5 210.4)" xlink:href="#linear-gradient-21"/><linearGradient id="linear-gradient-30" x1="679.8" y1="203.2" x2="695.8" y2="203.2" gradientTransform="rotate(23.1 687.7 203.1)" xlink:href="#linear-gradient-21"/><linearGradient id="linear-gradient-31" x1="690.7" y1="206.8" x2="703.3" y2="206.8" gradientTransform="rotate(63.5 697 206.9)" xlink:href="#linear-gradient-21"/><linearGradient id="linear-gradient-32" x1="676.6" y1="210.5" x2="686.2" y2="210.5" gradientTransform="rotate(60.6 681.3 210.5)" xlink:href="#linear-gradient-21"/></defs><g style="isolation:isolate"><g id="Layer_1" data-name="Layer 1"><g clip-path="url(#clip-path)"><path fill="url(#linear-gradient)" d="M49.3 220.5L-3 216.8v-7.1l9.6-1L13 200l19.9 1.9 4.5 8.7 11.9 2.5v7.3z"/><path transform="rotate(-86 23.4 217.5)" fill="#a09a98" d="M22.3 190.5h2.3v54h-2.3z"/><path class="cls-6" d="M11.2 217.8L-.1 217c.4-3.3 3-5.8 6-5.6s5.3 3 5.3 6.4zM44.4 220.1l-11.3-.8c.5-3.3 3-5.8 6-5.5s5.4 3 5.3 6.3z"/><path class="cls-7" transform="rotate(-86 49.3 219.3)" d="M48.2 218.3h2.3v2h-2.3z"/><path fill="#29abe2" opacity=".5" d="M35.7 210.6l-27-1.9 4.7-7.2 18.4 1.3.3.5.8 1.6 2.8 5.7z"/><path class="cls-9" d="M14 210.5l2.2-9.8.7.4-1.6 9.3-1.1.1M27.4 201.8l-.7 9.8h.9l.4-9.6-.4-.3"/><ellipse class="cls-10" cx="38.7" cy="220.1" rx="4.9" ry="4.3" transform="rotate(-86 38.8 220.1)"/><path class="cls-7" d="M40.8 219.8v.2a3.4 3.4 0 0 1-.1.6 3.2 3.2 0 0 1-.4.9 2.6 2.6 0 0 1-.4.5v.1a2 2 0 0 1-1.2.5h-.2a1.7 1.7 0 0 1-.6-.1 2.1 2.1 0 0 1-1-.8 2.9 2.9 0 0 1-.3-.9v-.1a3.4 3.4 0 0 1 0-.6v-.1a2.2 2.2 0 0 1 0-.3 3.5 3.5 0 0 1 .4-1.4 2.7 2.7 0 0 1 .5-.7 1.9 1.9 0 0 1 1.1-.5h.3a1.5 1.5 0 0 1 .3 0l.2.1a2.1 2.1 0 0 1 1 .9 3 3 0 0 1 .3.8 3.4 3.4 0 0 1 0 .9z"/><ellipse class="cls-10" cx="5.5" cy="217.8" rx="4.9" ry="4.3" transform="rotate(-86 5.5 217.8)"/><path class="cls-7" d="M7.5 217.7a3.2 3.2 0 0 1 0 .6 3.2 3.2 0 0 1-.4.9 2.6 2.6 0 0 1-.5.6 2 2 0 0 1-1.2.5h-.2a1.7 1.7 0 0 1-.6-.1 2.1 2.1 0 0 1-.9-.9 2.9 2.9 0 0 1-.4-.8 3.4 3.4 0 0 1 0-.9v-.2a3.3 3.3 0 0 1 0-.6 3.2 3.2 0 0 1 .4-.8 2.7 2.7 0 0 1 .5-.7 2 2 0 0 1 1.2-.5h.2a1.8 1.8 0 0 1 .6.1 2.1 2.1 0 0 1 1 .9 3 3 0 0 1 .3.8 3.3 3.3 0 0 1 0 .9v.2z"/><path class="cls-9" d="M17.3 210.8a.2.2 0 0 1-.2.1h-1.8a.2.2 0 0 1-.2-.3.2.2 0 0 1 .2-.2l1.8.1a.2.2 0 0 1 .2.3zM29.8 211.6a.2.2 0 0 1-.2.2l-1.8-.1a.2.2 0 0 1-.2-.2.2.2 0 0 1 .2-.2l1.8.1a.2.2 0 0 1 .2.2zM34 211.2l-.7-1.2-.1 1.4h-1l.1-2.4h1.3l-.1.6 1.1 1.6h.7l-.2.6-1.3-.1v-.5h.2z"/><path class="cls-11" d="M40.3 221.5a2.6 2.6 0 0 1-.4.6l-1.4-2a9.3 9.3 0 0 0-2 .6 3.4 3.4 0 0 1 0-.6l1.8-.5a10.5 10.5 0 0 0 .3-2.5h.2a1.5 1.5 0 0 1 .4.1l-.3 2.4a6.7 6.7 0 0 0 1.4 2zM7.1 219.2a2.6 2.6 0 0 1-.4.5l-1.4-1.9a9.3 9.3 0 0 0-2 .6 3.4 3.4 0 0 1 0-.6l1.8-.5a10.5 10.5 0 0 0 .2-2.5h.3a1.5 1.5 0 0 1 .4 0l-.3 2.5a6.7 6.7 0 0 0 1.4 1.9z"/></g><g opacity=".5"><path d="M723.3 152h5.4v10.2h-5.4v-10.3zm0 55.3h5.4V197h-5.4v10.3zm-6.4 0h5.4V197h-5.4v10.3zm5.4-11.3v-10.2h-5.4V196h5.4zm1-45.1h5.4v-10.2h-5.4v10.2zm0 45.1h5.4v-10.2h-5.4V196zm0-22.6h5.4v-10.2h-5.4v10.3zm0 11.3h5.4v-10.2h-5.4v10.3zm-6.4 0h5.4v-10.2h-5.4v10.3zm-7.4 0v-10.2h-5.4v10.3h5.4zm-6.4-21.5h-5.4v10.3h5.4v-10.3zm-6.4 0h-5.3v10.3h5.4v-10.3zm19.2-22.6h-5.4V151h5.4v-10.2zm-19.1 33.9h-5.4v10.2h5.4v-10.2zm7.3-22.6v10.3h5.4v-10.3h-5.4zm5.4-11.3h-5.4V151h5.4v-10.2zm-11.8 66.7h5.4V197h-5.4v10.3zm-1-21.6h-5.4V196h5.4v-10.2zm20.2-12.2h5.4v-10.3h-5.4v10.3zm0-11.3h5.4v-10.3h-5.4v10.3zm-6.4 11.3h5.4v-10.3h-5.4v10.3zm-1 22.5v-10.2H704V196h5.4zm-5.4-32.8v10.3h5.4v-10.3H704zm-1 11.3h-5.4v10.2h5.4v-10.2zm-5.4-22.6v10.3h5.4v-10.3h-5.4zm24.5-11.3H717V151h5.4v-10.2zm-11.7 66.7h5.4V197h-5.4v10.3zm-19.2 0h5.4V197h-5.4v10.3zM716 196v-10.2h-5.4V196h5.4zm0-11.3v-10.2h-5.4v10.3h5.4zm-5.4-32.8v10.3h5.4v-10.3h-5.4zm-7.4-11.3h-5.3V151h5.3v-10.2zm1 66.7h5.4V197h-5.4v10.3zm-1-11.3v-10.2h-5.3V196h5.3zm-6.3-44.1h-5.4v10.3h5.4v-10.3zm0-11.3h-5.4V151h5.4v-10.2z" opacity=".6" fill="url(#linear-gradient-2)"/><g class="cls-14"><path class="cls-15" d="M704.1 140.7h5.4V151h-5.4zM697.8 151.9h5.4v10.3h-5.4zM697.8 163.2h5.4v10.3h-5.4zM697.8 174.5h5.4v10.3h-5.4zM697.8 140.7h5.4V151h-5.4zM691.4 174.5h5.4v10.3h-5.4zM691.4 185.8h5.4v10.3h-5.4zM716.9 140.7h5.4V151h-5.4zM704.1 163.2h5.4v10.3h-5.4zM696.8 197h-5.4v10.3h.6l4.8-8V197zM704.1 151.9h5.4v10.3h-5.4zM710.5 151.9h5.4v10.3h-5.4zM710.5 140.7h5.4V151h-5.4z"/><path fill="url(#linear-gradient-3)" d="M710.5 174.5v1.8l1.1-1.8h-1z"/><path class="cls-15" d="M715.9 163.2h-5.4v10.3h1.7l3.7-6.2v-4.1zM722.3 152h-5.4v10.2h2l3.4-5.5v-4.8z"/><path fill="url(#linear-gradient-4)" d="M716.9 163.2v2.5l1.5-2.5h-1.5z"/><path class="cls-15" d="M728.7 140.7h-5.4v10.2h2.4l3-5v-5.2z"/><path fill="url(#linear-gradient-5)" d="M723.3 152v3l1.8-3h-1.8z"/><path class="cls-15" d="M703.1 185.8h-5.4V196h1l4.4-7.3v-3zM709.5 174.5h-5.4v10.3h1.4l4-6.8v-3.5zM691.4 151.9h5.4v10.3h-5.4z"/><path fill="url(#linear-gradient-6)" d="M697.8 197v.7l.3-.7h-.4z"/><path class="cls-15" d="M691.4 140.7h5.4V151h-5.4z"/><path fill="url(#linear-gradient-7)" d="M704.1 185.8v1.2l.8-1.2h-.8z"/><path class="cls-15" d="M691.4 163.2h5.4v10.3h-5.4z"/></g></g><path style="isolation:isolate" fill="url(#linear-gradient-8)" opacity=".6" d="M104.1 88.7h56v12.7h-56z"/><path fill="#00a99d" opacity=".2" d="M97.9 96.1h68.4v15.4H97.9z"/><path class="cls-23" d="M97.9 94.8h3.4v123.5h-3.4zM106 94.8h3.4v123.5H106zM114.1 94.8h3.4v123.5h-3.4zM122.3 94.8h3.4v123.5h-3.4zM130.4 94.8h3.4v123.5h-3.4zM138.5 94.8h3.4v123.5h-3.4zM146.7 94.8h3.4v123.5h-3.4zM154.8 94.8h3.4v123.5h-3.4zM162.9 94.8h3.4v123.5h-3.4z"/><path class="cls-24" d="M97.9 115h3.4v1.1h-3.4zM106 115h3.4v1.1H106zM114.1 115h3.4v1.1h-3.4zM122.3 115h3.4v1.1h-3.4zM130.4 115h3.4v1.1h-3.4zM138.5 115h3.4v1.1h-3.4zM146.7 115h3.4v1.1h-3.4zM154.8 115h3.4v1.1h-3.4zM162.9 115h3.4v1.1h-3.4zM97.9 124h3.4v1.1h-3.4zM106 124h3.4v1.1H106zM114.1 124h3.4v1.1h-3.4zM122.3 124h3.4v1.1h-3.4zM130.4 124h3.4v1.1h-3.4zM138.5 124h3.4v1.1h-3.4zM146.7 124h3.4v1.1h-3.4zM154.8 124h3.4v1.1h-3.4zM162.9 124h3.4v1.1h-3.4zM97.9 133h3.4v1.1h-3.4zM106 133h3.4v1.1H106zM114.1 133h3.4v1.1h-3.4zM122.3 133h3.4v1.1h-3.4zM130.4 133h3.4v1.1h-3.4zM138.5 133h3.4v1.1h-3.4zM146.7 133h3.4v1.1h-3.4zM154.8 133h3.4v1.1h-3.4zM162.9 133h3.4v1.1h-3.4zM97.9 141.9h3.4v1.1h-3.4zM106 141.9h3.4v1.1H106zM114.1 141.9h3.4v1.1h-3.4zM122.3 141.9h3.4v1.1h-3.4zM130.4 141.9h3.4v1.1h-3.4zM138.5 141.9h3.4v1.1h-3.4zM146.7 141.9h3.4v1.1h-3.4zM154.8 141.9h3.4v1.1h-3.4zM162.9 141.9h3.4v1.1h-3.4zM97.9 150.9h3.4v1.1h-3.4zM106 150.9h3.4v1.1H106zM114.1 150.9h3.4v1.1h-3.4zM122.3 150.9h3.4v1.1h-3.4zM130.4 150.9h3.4v1.1h-3.4zM138.5 150.9h3.4v1.1h-3.4zM146.7 150.9h3.4v1.1h-3.4zM154.8 150.9h3.4v1.1h-3.4zM162.9 150.9h3.4v1.1h-3.4zM97.9 159.9h3.4v1.1h-3.4zM106 159.9h3.4v1.1H106zM114.1 159.9h3.4v1.1h-3.4zM122.3 159.9h3.4v1.1h-3.4zM130.4 159.9h3.4v1.1h-3.4zM138.5 159.9h3.4v1.1h-3.4zM146.7 159.9h3.4v1.1h-3.4zM154.8 159.9h3.4v1.1h-3.4zM162.9 159.9h3.4v1.1h-3.4zM97.9 168.9h3.4v1.1h-3.4zM106 168.9h3.4v1.1H106zM114.1 168.9h3.4v1.1h-3.4zM122.3 168.9h3.4v1.1h-3.4zM130.4 168.9h3.4v1.1h-3.4zM138.5 168.9h3.4v1.1h-3.4zM146.7 168.9h3.4v1.1h-3.4zM154.8 168.9h3.4v1.1h-3.4zM162.9 168.9h3.4v1.1h-3.4zM97.9 177.9h3.4v1.1h-3.4zM106 177.9h3.4v1.1H106zM114.1 177.9h3.4v1.1h-3.4zM122.3 177.9h3.4v1.1h-3.4zM130.4 177.9h3.4v1.1h-3.4zM138.5 177.9h3.4v1.1h-3.4zM146.7 177.9h3.4v1.1h-3.4zM154.8 177.9h3.4v1.1h-3.4zM162.9 177.9h3.4v1.1h-3.4zM97.9 186.9h3.4v1.1h-3.4zM106 186.9h3.4v1.1H106zM114.1 186.9h3.4v1.1h-3.4zM122.3 186.9h3.4v1.1h-3.4zM130.4 186.9h3.4v1.1h-3.4zM138.5 186.9h3.4v1.1h-3.4zM146.7 186.9h3.4v1.1h-3.4zM154.8 186.9h3.4v1.1h-3.4zM162.9 186.9h3.4v1.1h-3.4zM97.9 195.9h3.4v1.1h-3.4zM106 195.9h3.4v1.1H106zM114.1 195.9h3.4v1.1h-3.4zM122.3 195.9h3.4v1.1h-3.4zM130.4 195.9h3.4v1.1h-3.4zM138.5 195.9h3.4v1.1h-3.4zM146.7 195.9h3.4v1.1h-3.4zM154.8 195.9h3.4v1.1h-3.4zM162.9 195.9h3.4v1.1h-3.4zM97.9 204.8h3.4v1.1h-3.4zM106 204.8h3.4v1.1H106zM114.1 204.8h3.4v1.1h-3.4zM122.3 204.8h3.4v1.1h-3.4zM130.4 204.8h3.4v1.1h-3.4zM138.5 204.8h3.4v1.1h-3.4zM146.7 204.8h3.4v1.1h-3.4zM154.8 204.8h3.4v1.1h-3.4zM162.9 204.8h3.4v1.1h-3.4z"/><g class="cls-14"><path fill="url(#linear-gradient-9)" d="M101.2 111.5l4.7 2.4v-2.4h-4.7z"/><path fill="url(#linear-gradient-10)" d="M109.4 111.5l4.6 2.4v-2.4h-4.6z"/><path fill="url(#linear-gradient-11)" d="M117.5 111.5l4.7 2.4v-2.4h-4.7z"/><path fill="url(#linear-gradient-12)" d="M125.6 111.5l4.7 2.4v-2.4h-4.7z"/><path fill="url(#linear-gradient-13)" d="M133.8 111.5l4.6 2.4v-2.4h-4.6z"/><path fill="url(#linear-gradient-14)" d="M141.9 111.5l4.7 2.4v-2.4h-4.7z"/><path fill="url(#linear-gradient-15)" d="M150 111.5l4.7 2.4v-2.4H150z"/><path fill="url(#linear-gradient-16)" d="M158.2 111.5l4.6 2.4v-2.4h-4.7z"/></g><path class="cls-33" d="M323.7 92.8h56v12.7h-56z"/><path fill="url(#linear-gradient-17)" opacity=".3" d="M317.5 100.2h68.4v122.1h-68.4z"/><path class="cls-35" d="M317.5 119.1h3.4v1.1h-3.4zM325.6 119.1h3.4v1.1h-3.4zM333.8 119.1h3.4v1.1h-3.4zM341.9 119.1h3.4v1.1h-3.4zM350 119.1h3.4v1.1H350zM358.1 119.1h3.4v1.1h-3.4zM366.3 119.1h3.4v1.1h-3.4zM374.4 119.1h3.4v1.1h-3.4zM382.6 119.1h3.4v1.1h-3.4zM317.5 128h3.4v1.1h-3.4zM325.6 128h3.4v1.1h-3.4zM333.8 128h3.4v1.1h-3.4zM341.9 128h3.4v1.1h-3.4zM350 128h3.4v1.1H350zM358.1 128h3.4v1.1h-3.4zM366.3 128h3.4v1.1h-3.4zM374.4 128h3.4v1.1h-3.4zM382.6 128h3.4v1.1h-3.4zM317.5 137h3.4v1.1h-3.4zM325.6 137h3.4v1.1h-3.4zM333.8 137h3.4v1.1h-3.4zM341.9 137h3.4v1.1h-3.4zM350 137h3.4v1.1H350zM358.1 137h3.4v1.1h-3.4zM366.3 137h3.4v1.1h-3.4zM374.4 137h3.4v1.1h-3.4zM382.6 137h3.4v1.1h-3.4zM317.5 146h3.4v1.1h-3.4zM325.6 146h3.4v1.1h-3.4zM333.8 146h3.4v1.1h-3.4zM341.9 146h3.4v1.1h-3.4zM350 146h3.4v1.1H350zM358.1 146h3.4v1.1h-3.4zM366.3 146h3.4v1.1h-3.4zM374.4 146h3.4v1.1h-3.4zM382.6 146h3.4v1.1h-3.4zM317.5 155h3.4v1.1h-3.4zM325.6 155h3.4v1.1h-3.4zM333.8 155h3.4v1.1h-3.4zM341.9 155h3.4v1.1h-3.4zM350 155h3.4v1.1H350zM358.1 155h3.4v1.1h-3.4zM366.3 155h3.4v1.1h-3.4zM374.4 155h3.4v1.1h-3.4zM382.6 155h3.4v1.1h-3.4zM317.5 164h3.4v1.1h-3.4zM325.6 164h3.4v1.1h-3.4zM333.8 164h3.4v1.1h-3.4zM341.9 164h3.4v1.1h-3.4zM350 164h3.4v1.1H350zM358.1 164h3.4v1.1h-3.4zM366.3 164h3.4v1.1h-3.4zM374.4 164h3.4v1.1h-3.4zM382.6 164h3.4v1.1h-3.4zM317.5 173h3.4v1.1h-3.4zM325.6 173h3.4v1.1h-3.4zM333.8 173h3.4v1.1h-3.4zM341.9 173h3.4v1.1h-3.4zM350 173h3.4v1.1H350zM358.1 173h3.4v1.1h-3.4zM366.3 173h3.4v1.1h-3.4zM374.4 173h3.4v1.1h-3.4zM382.6 173h3.4v1.1h-3.4zM317.5 182h3.4v1.1h-3.4zM325.6 182h3.4v1.1h-3.4zM333.8 182h3.4v1.1h-3.4zM341.9 182h3.4v1.1h-3.4zM350 182h3.4v1.1H350zM358.1 182h3.4v1.1h-3.4zM366.3 182h3.4v1.1h-3.4zM374.4 182h3.4v1.1h-3.4zM382.6 182h3.4v1.1h-3.4zM317.5 190.9h3.4v1.1h-3.4zM325.6 190.9h3.4v1.1h-3.4zM333.8 190.9h3.4v1.1h-3.4zM341.9 190.9h3.4v1.1h-3.4zM350 190.9h3.4v1.1H350zM358.1 190.9h3.4v1.1h-3.4zM366.3 190.9h3.4v1.1h-3.4zM374.4 190.9h3.4v1.1h-3.4zM382.6 190.9h3.4v1.1h-3.4zM317.5 199.9h3.4v1.1h-3.4zM325.6 199.9h3.4v1.1h-3.4zM333.8 199.9h3.4v1.1h-3.4zM341.9 199.9h3.4v1.1h-3.4zM350 199.9h3.4v1.1H350zM358.1 199.9h3.4v1.1h-3.4zM366.3 199.9h3.4v1.1h-3.4zM374.4 199.9h3.4v1.1h-3.4zM382.6 199.9h3.4v1.1h-3.4zM317.5 208.9h3.4v1.1h-3.4zM325.6 208.9h3.4v1.1h-3.4zM333.8 208.9h3.4v1.1h-3.4zM341.9 208.9h3.4v1.1h-3.4zM350 208.9h3.4v1.1H350zM358.1 208.9h3.4v1.1h-3.4zM366.3 208.9h3.4v1.1h-3.4zM374.4 208.9h3.4v1.1h-3.4zM382.6 208.9h3.4v1.1h-3.4zM320.9 115.5l4.6 2.5v-2.5H321zM329 115.5l4.7 2.5v-2.5H329zM337.1 115.5l4.7 2.5v-2.5h-4.7zM345.3 115.5l4.6 2.5v-2.5h-4.6zM353.4 115.5l4.7 2.5v-2.5h-4.7zM361.5 115.5l4.7 2.5v-2.5h-4.7zM369.6 115.5l4.7 2.5v-2.5h-4.7zM377.8 115.5l4.7 2.5v-2.5h-4.7z"/><path class="cls-33" d="M442.2 79.8h56v12.7h-56z"/><path fill="url(#linear-gradient-18)" opacity=".3" d="M436 87.3h68.4v122.1H436z"/><path class="cls-35" d="M436 106.1h3.4v1.1H436zM444.1 106.1h3.4v1.1h-3.4zM452.3 106.1h3.4v1.1h-3.4zM460.4 106.1h3.4v1.1h-3.4zM468.5 106.1h3.4v1.1h-3.4zM476.6 106.1h3.4v1.1h-3.4zM484.8 106.1h3.4v1.1h-3.4zM492.9 106.1h3.4v1.1h-3.4zM501 106.1h3.4v1.1H501zM436 115.1h3.4v1.1H436zM444.1 115.1h3.4v1.1h-3.4zM452.3 115.1h3.4v1.1h-3.4zM460.4 115.1h3.4v1.1h-3.4zM468.5 115.1h3.4v1.1h-3.4zM476.6 115.1h3.4v1.1h-3.4zM484.8 115.1h3.4v1.1h-3.4zM492.9 115.1h3.4v1.1h-3.4zM501 115.1h3.4v1.1H501zM436 124.1h3.4v1.1H436zM444.1 124.1h3.4v1.1h-3.4zM452.3 124.1h3.4v1.1h-3.4zM460.4 124.1h3.4v1.1h-3.4zM468.5 124.1h3.4v1.1h-3.4zM476.6 124.1h3.4v1.1h-3.4zM484.8 124.1h3.4v1.1h-3.4zM492.9 124.1h3.4v1.1h-3.4zM501 124.1h3.4v1.1H501zM436 133.1h3.4v1.1H436zM444.1 133.1h3.4v1.1h-3.4zM452.3 133.1h3.4v1.1h-3.4zM460.4 133.1h3.4v1.1h-3.4zM468.5 133.1h3.4v1.1h-3.4zM476.6 133.1h3.4v1.1h-3.4zM484.8 133.1h3.4v1.1h-3.4zM492.9 133.1h3.4v1.1h-3.4zM501 133.1h3.4v1.1H501zM436 142.1h3.4v1.1H436zM444.1 142.1h3.4v1.1h-3.4zM452.3 142.1h3.4v1.1h-3.4zM460.4 142.1h3.4v1.1h-3.4zM468.5 142.1h3.4v1.1h-3.4zM476.6 142.1h3.4v1.1h-3.4zM484.8 142.1h3.4v1.1h-3.4zM492.9 142.1h3.4v1.1h-3.4zM501 142.1h3.4v1.1H501zM436 151.1h3.4v1.1H436zM444.1 151.1h3.4v1.1h-3.4zM452.3 151.1h3.4v1.1h-3.4zM460.4 151.1h3.4v1.1h-3.4zM468.5 151.1h3.4v1.1h-3.4zM476.6 151.1h3.4v1.1h-3.4zM484.8 151.1h3.4v1.1h-3.4zM492.9 151.1h3.4v1.1h-3.4zM501 151.1h3.4v1.1H501zM436 160h3.4v1.1H436zM444.1 160h3.4v1.1h-3.4zM452.3 160h3.4v1.1h-3.4zM460.4 160h3.4v1.1h-3.4zM468.5 160h3.4v1.1h-3.4zM476.6 160h3.4v1.1h-3.4zM484.8 160h3.4v1.1h-3.4zM492.9 160h3.4v1.1h-3.4zM501 160h3.4v1.1H501zM436 169h3.4v1.1H436zM444.1 169h3.4v1.1h-3.4zM452.3 169h3.4v1.1h-3.4zM460.4 169h3.4v1.1h-3.4zM468.5 169h3.4v1.1h-3.4zM476.6 169h3.4v1.1h-3.4zM484.8 169h3.4v1.1h-3.4zM492.9 169h3.4v1.1h-3.4zM501 169h3.4v1.1H501zM436 178h3.4v1.1H436zM444.1 178h3.4v1.1h-3.4zM452.3 178h3.4v1.1h-3.4zM460.4 178h3.4v1.1h-3.4zM468.5 178h3.4v1.1h-3.4zM476.6 178h3.4v1.1h-3.4zM484.8 178h3.4v1.1h-3.4zM492.9 178h3.4v1.1h-3.4zM501 178h3.4v1.1H501zM436 187h3.4v1.1H436zM444.1 187h3.4v1.1h-3.4zM452.3 187h3.4v1.1h-3.4zM460.4 187h3.4v1.1h-3.4zM468.5 187h3.4v1.1h-3.4zM476.6 187h3.4v1.1h-3.4zM484.8 187h3.4v1.1h-3.4zM492.9 187h3.4v1.1h-3.4zM501 187h3.4v1.1H501zM436 196h3.4v1.1H436zM444.1 196h3.4v1.1h-3.4zM452.3 196h3.4v1.1h-3.4zM460.4 196h3.4v1.1h-3.4zM468.5 196h3.4v1.1h-3.4zM476.6 196h3.4v1.1h-3.4zM484.8 196h3.4v1.1h-3.4zM492.9 196h3.4v1.1h-3.4zM501 196h3.4v1.1H501zM439.4 102.6l4.6 2.4v-2.4h-4.6zM447.5 102.6l4.7 2.4v-2.4h-4.7zM455.6 102.6l4.7 2.4v-2.4h-4.7zM463.8 102.6l4.6 2.4v-2.4h-4.6zM471.9 102.6l4.7 2.4v-2.4h-4.7zM480 102.6l4.7 2.4v-2.4H480zM488.1 102.6l4.7 2.4v-2.4h-4.7zM496.3 102.6l4.6 2.4v-2.4h-4.6z"/><path class="cls-24" d="M134.1 189.8h89.6v2.8h-89.6z"/><path fill="#abc9f4" d="M134.1 193.7h86.5V224h-86.5z"/><path class="cls-24" d="M134.1 193.7h86.5v3.8h-86.5zM134.1 203.7h86.5v3.8h-86.5z"/><path class="cls-23" d="M134.1 192.6h86.5v2.3h-86.5zM134.1 202.6h86.5v2.3h-86.5zM134.1 212.6h86.5v2.3h-86.5z"/><path class="cls-24" d="M139 185.9h17.5v38H139z"/><path style="isolation:isolate" fill="url(#linear-gradient-19)" opacity=".6" d="M140.7 188.2h14.1v29.7h-14.1z"/><path class="cls-39" d="M161.3 216.9h14.5v7h-14.5z"/><path class="cls-40" d="M162.8 224h-1.5l2.5-7.1h1.5l-2.5 7zM168.5 224H167l2.6-7.1h1.5l-2.6 7zM175.8 216.9l-2.6 7h1.5l1-3v-4z"/><path class="cls-41" d="M168.3 216.9h.5v7h-.5z"/><circle class="cls-41" cx="167.7" cy="221.1" r=".3"/><circle class="cls-41" cx="169.4" cy="221.1" r=".3"/><path class="cls-39" d="M181.5 216.9H196v7h-14.5z"/><path class="cls-40" d="M183 224h-1.5l2.6-7.1h1.5l-2.6 7zM188.7 224h-1.4l2.5-7.1h1.5l-2.6 7zM196 216.9l-2.6 7h1.5l1-3v-4z"/><path class="cls-41" d="M188.5 216.9h.5v7h-.5z"/><circle class="cls-41" cx="187.9" cy="221.1" r=".3"/><circle class="cls-41" cx="189.6" cy="221.1" r=".3"/><path class="cls-39" d="M201.7 216.9h14.5v7h-14.5z"/><path class="cls-40" d="M203.2 224h-1.5l2.6-7.1h1.5l-2.6 7zM209 224h-1.5l2.5-7.1h1.5l-2.5 7zM216.2 216.9l-2.6 7h1.5l1-3v-4z"/><path class="cls-41" d="M208.7 216.9h.5v7h-.5z"/><circle class="cls-41" cx="208.1" cy="221.1" r=".3"/><circle class="cls-41" cx="209.8" cy="221.1" r=".3"/><path fill="url(#linear-gradient-20)" d="M568.5 112.4h52.8v103.5h-52.8z"/><path class="cls-33" d="M573.7 101.5H616v13.4h-42.3z"/><path d="M624.6 117.3H565v-5.8h59.5v5.8zm0 5.1H565v5.8h59.5v-5.8zm0 11H565v5.8h59.5v-5.8zm0 11H565v5.8h59.5v-5.8zm0 11H565v5.8h59.5v-5.8zm0 11H565v5.8h59.5v-5.8zm0 11H565v5.6h59.5v-5.8zm0 11H565v5.6h59.5v-5.8zm0 11H565v16.8h59.5v-17z" fill="#a8deef" opacity=".6"/><path fill="#6b6564" d="M585.3 205.2h19.2v10.7h-19.2z"/><path class="cls-45" d="M587.2 216h-2l3.4-10.8h2l-3.4 10.7zM594.9 216h-2l3.4-10.8h2l-3.4 10.7zM604.5 205.2l-3.5 10.7h2l1.5-4.5v-6.2z"/><path class="cls-46" d="M594.5 205.2h.6v10.7h-.6z"/><ellipse class="cls-46" cx="593.7" cy="211.6" rx=".5" ry=".5"/><ellipse class="cls-46" cx="596" cy="211.6" rx=".5" ry=".5"/><path class="cls-23" d="M215.8 29.1h66.8v196.6h-66.8z"/><path fill="url(#radial-gradient)" opacity=".3" d="M269.4 185h8.2v8.4h-8.2z"/><path fill="url(#radial-gradient-2)" opacity=".3" d="M269.4 175h8.2v8.4h-8.2z"/><path fill="url(#radial-gradient-3)" opacity=".3" d="M269.4 165.1h8.2v8.4h-8.2z"/><path fill="url(#radial-gradient-4)" opacity=".3" d="M269.4 155.2h8.2v8.4h-8.2z"/><path fill="url(#radial-gradient-5)" opacity=".3" d="M269.4 145.2h8.2v8.4h-8.2z"/><path fill="url(#radial-gradient-6)" opacity=".3" d="M269.4 135.3h8.2v8.4h-8.2z"/><path fill="url(#radial-gradient-7)" opacity=".3" d="M269.4 125.4h8.2v8.4h-8.2z"/><path fill="url(#radial-gradient-8)" opacity=".3" d="M269.4 115.4h8.2v8.4h-8.2z"/><path fill="url(#radial-gradient-9)" opacity=".3" d="M269.4 105.5h8.2v8.4h-8.2z"/><path fill="url(#radial-gradient-10)" opacity=".3" d="M269.4 95.6h8.2v8.4h-8.2z"/><path fill="url(#radial-gradient-11)" opacity=".3" d="M269.4 85.6h8.2V94h-8.2z"/><path fill="url(#radial-gradient-12)" opacity=".3" d="M269.4 75.7h8.2v8.4h-8.2z"/><path fill="url(#radial-gradient-13)" opacity=".3" d="M269.4 65.8h8.2v8.4h-8.2z"/><path fill="url(#radial-gradient-14)" opacity=".3" d="M269.4 55.8h8.2v8.4h-8.2z"/><path fill="url(#radial-gradient-15)" opacity=".3" d="M269.4 45.9h8.2v8.4h-8.2z"/><path fill="url(#radial-gradient-16)" opacity=".3" d="M259.7 185h8.2v8.4h-8.2z"/><path fill="url(#radial-gradient-17)" opacity=".3" d="M259.7 175h8.2v8.4h-8.2z"/><path fill="url(#radial-gradient-18)" opacity=".3" d="M259.7 165.1h8.2v8.4h-8.2z"/><path fill="url(#radial-gradient-19)" opacity=".3" d="M259.7 155.2h8.2v8.4h-8.2z"/><path fill="url(#radial-gradient-20)" opacity=".3" d="M259.7 145.2h8.2v8.4h-8.2z"/><path fill="url(#radial-gradient-21)" opacity=".3" d="M259.7 135.3h8.2v8.4h-8.2z"/><path fill="url(#radial-gradient-22)" opacity=".3" d="M259.7 125.4h8.2v8.4h-8.2z"/><path fill="url(#radial-gradient-23)" opacity=".3" d="M259.7 115.4h8.2v8.4h-8.2z"/><path fill="url(#radial-gradient-24)" opacity=".3" d="M259.7 105.5h8.2v8.4h-8.2z"/><path fill="url(#radial-gradient-25)" opacity=".3" d="M259.7 95.6h8.2v8.4h-8.2z"/><path fill="url(#radial-gradient-26)" opacity=".3" d="M259.7 85.6h8.2V94h-8.2z"/><path fill="url(#radial-gradient-27)" opacity=".3" d="M259.7 75.7h8.2v8.4h-8.2z"/><path fill="url(#radial-gradient-28)" opacity=".3" d="M259.7 65.8h8.2v8.4h-8.2z"/><path fill="url(#radial-gradient-29)" opacity=".3" d="M259.7 55.8h8.2v8.4h-8.2z"/><path fill="url(#radial-gradient-30)" opacity=".3" d="M259.7 45.9h8.2v8.4h-8.2z"/><path fill="url(#radial-gradient-31)" opacity=".3" d="M250 185h8.2v8.4H250z"/><path fill="url(#radial-gradient-32)" opacity=".3" d="M250 175h8.2v8.4H250z"/><path fill="url(#radial-gradient-33)" opacity=".3" d="M250 165.1h8.2v8.4H250z"/><path fill="url(#radial-gradient-34)" opacity=".3" d="M250 155.2h8.2v8.4H250z"/><path fill="url(#radial-gradient-35)" opacity=".3" d="M250 145.2h8.2v8.4H250z"/><path fill="url(#radial-gradient-36)" opacity=".3" d="M250 135.3h8.2v8.4H250z"/><path fill="url(#radial-gradient-37)" opacity=".3" d="M250 125.4h8.2v8.4H250z"/><path fill="url(#radial-gradient-38)" opacity=".3" d="M250 115.4h8.2v8.4H250z"/><path fill="url(#radial-gradient-39)" opacity=".3" d="M250 105.5h8.2v8.4H250z"/><path fill="url(#radial-gradient-40)" opacity=".3" d="M250 95.6h8.2v8.4H250z"/><path fill="url(#radial-gradient-41)" opacity=".3" d="M250 85.6h8.2V94H250z"/><path fill="url(#radial-gradient-42)" opacity=".3" d="M250 75.7h8.2v8.4H250z"/><path fill="url(#radial-gradient-43)" opacity=".3" d="M250 65.8h8.2v8.4H250z"/><path fill="url(#radial-gradient-44)" opacity=".3" d="M250 55.8h8.2v8.4H250z"/><path fill="url(#radial-gradient-45)" opacity=".3" d="M250 45.9h8.2v8.4H250z"/><path fill="url(#radial-gradient-46)" opacity=".3" d="M240.3 185h8.2v8.4h-8.2z"/><path fill="url(#radial-gradient-47)" opacity=".3" d="M240.3 175h8.2v8.4h-8.2z"/><path fill="url(#radial-gradient-48)" opacity=".3" d="M240.3 165.1h8.2v8.4h-8.2z"/><path fill="url(#radial-gradient-49)" opacity=".3" d="M240.3 155.2h8.2v8.4h-8.2z"/><path fill="url(#radial-gradient-50)" opacity=".3" d="M240.3 145.2h8.2v8.4h-8.2z"/><path fill="url(#radial-gradient-51)" opacity=".3" d="M240.3 135.3h8.2v8.4h-8.2z"/><path fill="url(#radial-gradient-52)" opacity=".3" d="M240.3 125.4h8.2v8.4h-8.2z"/><path fill="url(#radial-gradient-53)" opacity=".3" d="M240.3 115.4h8.2v8.4h-8.2z"/><path fill="url(#radial-gradient-54)" opacity=".3" d="M240.3 105.5h8.2v8.4h-8.2z"/><path fill="url(#radial-gradient-55)" opacity=".3" d="M240.3 95.6h8.2v8.4h-8.2z"/><path fill="url(#radial-gradient-56)" opacity=".3" d="M240.3 85.6h8.2V94h-8.2z"/><path fill="url(#radial-gradient-57)" opacity=".3" d="M240.3 75.7h8.2v8.4h-8.2z"/><path fill="url(#radial-gradient-58)" opacity=".3" d="M240.3 65.8h8.2v8.4h-8.2z"/><path fill="url(#radial-gradient-59)" opacity=".3" d="M240.3 55.8h8.2v8.4h-8.2z"/><path fill="url(#radial-gradient-60)" opacity=".3" d="M240.3 45.9h8.2v8.4h-8.2z"/><path fill="url(#radial-gradient-61)" opacity=".3" d="M230.6 185h8.2v8.4h-8.2z"/><path fill="url(#radial-gradient-62)" opacity=".3" d="M230.6 175h8.2v8.4h-8.2z"/><path fill="url(#radial-gradient-63)" opacity=".3" d="M230.6 165.1h8.2v8.4h-8.2z"/><path fill="url(#radial-gradient-64)" opacity=".3" d="M230.6 155.2h8.2v8.4h-8.2z"/><path fill="url(#radial-gradient-65)" opacity=".3" d="M230.6 145.2h8.2v8.4h-8.2z"/><path fill="url(#radial-gradient-66)" opacity=".3" d="M230.6 135.3h8.2v8.4h-8.2z"/><path fill="url(#radial-gradient-67)" opacity=".3" d="M230.6 125.4h8.2v8.4h-8.2z"/><path fill="url(#radial-gradient-68)" opacity=".3" d="M230.6 115.4h8.2v8.4h-8.2z"/><path fill="url(#radial-gradient-69)" opacity=".3" d="M230.6 105.5h8.2v8.4h-8.2z"/><path fill="url(#radial-gradient-70)" opacity=".3" d="M230.6 95.6h8.2v8.4h-8.2z"/><path fill="url(#radial-gradient-71)" opacity=".3" d="M230.6 85.6h8.2V94h-8.2z"/><path fill="url(#radial-gradient-72)" opacity=".3" d="M230.6 75.7h8.2v8.4h-8.2z"/><path fill="url(#radial-gradient-73)" opacity=".3" d="M230.6 65.8h8.2v8.4h-8.2z"/><path fill="url(#radial-gradient-74)" opacity=".3" d="M230.6 55.8h8.2v8.4h-8.2z"/><path fill="url(#radial-gradient-75)" opacity=".3" d="M230.6 45.9h8.2v8.4h-8.2z"/><path fill="url(#radial-gradient-76)" opacity=".3" d="M220.9 185h8.2v8.4h-8.2z"/><path fill="url(#radial-gradient-77)" opacity=".3" d="M220.9 175h8.2v8.4h-8.2z"/><path fill="url(#radial-gradient-78)" opacity=".3" d="M220.9 165.1h8.2v8.4h-8.2z"/><path fill="url(#radial-gradient-79)" opacity=".3" d="M220.9 155.2h8.2v8.4h-8.2z"/><path fill="url(#radial-gradient-80)" opacity=".3" d="M220.9 145.2h8.2v8.4h-8.2z"/><path fill="url(#radial-gradient-81)" opacity=".3" d="M220.9 135.3h8.2v8.4h-8.2z"/><path fill="url(#radial-gradient-82)" opacity=".3" d="M220.9 125.4h8.2v8.4h-8.2z"/><path fill="url(#radial-gradient-83)" opacity=".3" d="M220.9 115.4h8.2v8.4h-8.2z"/><path fill="url(#radial-gradient-84)" opacity=".3" d="M220.9 105.5h8.2v8.4h-8.2z"/><path fill="url(#radial-gradient-85)" opacity=".3" d="M220.9 95.6h8.2v8.4h-8.2z"/><path fill="url(#radial-gradient-86)" opacity=".3" d="M220.9 85.6h8.2V94h-8.2z"/><path fill="url(#radial-gradient-87)" opacity=".3" d="M220.9 75.7h8.2v8.4h-8.2z"/><path fill="url(#radial-gradient-88)" opacity=".3" d="M220.9 65.8h8.2v8.4h-8.2z"/><path fill="url(#radial-gradient-89)" opacity=".3" d="M220.9 55.8h8.2v8.4h-8.2z"/><path fill="url(#radial-gradient-90)" opacity=".3" d="M220.9 45.9h8.2v8.4h-8.2z"/><path fill="#1c7ca8" d="M232.8 207.3h32.9v18.4h-32.9z"/><path class="cls-138" d="M236.2 225.6h-3.4l5.8-18.3h3.4l-5.8 18.3zM249.3 225.6h-3.4l5.8-18.3h3.4l-5.8 18.3zM265.7 207.3l-5.8 18.3h3.4l2.4-7.7v-10.7z"/><path class="cls-139" d="M248.8 207.3h1v18.4h-1z"/><ellipse class="cls-139" cx="247.3" cy="218.2" rx=".8" ry=".9"/><ellipse class="cls-139" cx="251.2" cy="218.2" rx=".8" ry=".9"/><path fill="#d8eef0" d="M476.6 211.1h166.1v2.3H476.6z"/><ellipse cx="463.1" cy="202.9" rx="10.7" ry="7.4" transform="rotate(-75 463.2 202.9)" fill="url(#linear-gradient-21)"/><ellipse cx="454.6" cy="207.8" rx="5.7" ry="8.3" transform="rotate(-34.5 454.6 207.8)" fill="url(#linear-gradient-22)"/><ellipse cx="473.1" cy="200.6" rx="6.3" ry="4.3" transform="rotate(-37.5 473.1 200.6)" fill="url(#linear-gradient-23)"/><path class="cls-35" d="M463.4 226a.6.6 0 0 1-.5-.3 4.3 4.3 0 0 1-.6-1.1l-.2-1-.6-2.8c-.2-1.2-.4-2.5-.4-4a43.7 43.7 0 0 1 0-4.4c0-1.5.2-3 .4-4.5v-.5l.1-.5.2-1 .4-1.9.1-.8a37.8 37.8 0 0 1 .5-1.9l.3-1a2.5 2.5 0 0 1 .8-1.5h.1a2.6 2.6 0 0 1-.1 1.7l-.3 1-.3 1.2-.1.7-.2.8-.3 1.8-.2 1v.5l-.1.5c-.2 1.4-.3 2.9-.3 4.4a42.2 42.2 0 0 0 0 4.4 38.2 38.2 0 0 0 1.5 7.4c.2 1 .3 1.7 0 1.8z"/><path class="cls-35" d="M461.7 208.7a1 1 0 0 1 .4-1l.5-.4 1.2-1 .8-.7 1-.7.2-.2.2-.2.6-.3.5-.4.5-.4 4.1-2.5.4-.2.4-.3c.2 0 .4-.2.5-.3l.5-.4.3-.2.3-.1a.3.3 0 0 1 .3 0 .3.3 0 0 1 0 .3 2.4 2.4 0 0 1-.2.3 2 2 0 0 1-.3.2l-.5.4c-.2 0-.4.2-.6.4l-.4.2-.4.3-4 2.5-.5.4-.5.4-.5.4-.2.1-.3.2-.9.8-.8.6-1.1 1-.4.5a1 1 0 0 1-1 .5z"/><path class="cls-35" d="M469.7 202.5a.3.3 0 0 1 .3-.2H473.8a.2.2 0 0 1 .3.1.3.3 0 0 1-.3.3h-.6l-1.3.1h-2a.3.3 0 0 1-.2-.2zM462.3 205.1a.3.3 0 0 1-.4-.1l-.4-.7a16 16 0 0 1-.7-1.5 15.3 15.3 0 0 1-.5-1.6l-.2-.6v-.2a.3.3 0 0 1 .1-.3.3.3 0 0 1 .3.3v.2l.2.5a14.6 14.6 0 0 0 .6 1.5 15.4 15.4 0 0 0 .7 1.4l.4.6a.3.3 0 0 1 0 .4zM461.6 216.9a.3.3 0 0 0 0-.3 1.7 1.7 0 0 0-.5-.3h-.1l-.3-.2a9.3 9.3 0 0 1-1-.6 11.8 11.8 0 0 1-2.7-2.6 15.8 15.8 0 0 1-1-1.6 21.7 21.7 0 0 1-1.4-2.7l-.1-.5a.9.9 0 0 0-.5-.6.8.8 0 0 0 0 .8v.5l.5 1.2c0 .3.5 1 .8 1.6a16.8 16.8 0 0 0 1.1 1.8 13.7 13.7 0 0 0 1.4 1.6 11 11 0 0 0 1.4 1.2 10.3 10.3 0 0 0 1 .7l.4.2h.1a1.3 1.3 0 0 0 .6.2.3.3 0 0 0 .3-.2z"/><path class="cls-35" d="M456.5 213a.3.3 0 0 1-.2-.4v-.3-.5l.2-.8.2-1 .1-.8.2-.8.2-.8a.3.3 0 0 1 .2-.3.3.3 0 0 1 .1.4v.7l-.2.8-.1 1-.2.8v.8l-.1.6v.2a.3.3 0 0 1-.3.3zM455 210.5a.3.3 0 0 1-.3.1l-.7-.3a13 13 0 0 1-1.3-.8 14.3 14.3 0 0 1-1.2-1l-.4-.3-.1-.1a.3.3 0 0 1-.2-.3.3.3 0 0 1 .4 0l.1.2.4.3a13.8 13.8 0 0 0 1.2.8 12.7 12.7 0 0 0 1.4.7l.6.3a.3.3 0 0 1 .2.3z"/><ellipse cx="292.9" cy="210.9" rx="7" ry="4.8" transform="rotate(-75 292.9 211)" style="mix-blend-mode:multiply" fill="url(#linear-gradient-24)" opacity=".9"/><ellipse cx="287.3" cy="214.2" rx="3.8" ry="5.4" transform="rotate(-34.5 287.3 214.2)" style="mix-blend-mode:multiply" fill="url(#linear-gradient-25)" opacity=".9"/><ellipse cx="299.4" cy="209.5" rx="4.1" ry="2.8" transform="rotate(-37.5 299.4 209.5)" style="mix-blend-mode:multiply" fill="url(#linear-gradient-26)" opacity=".9"/><path class="cls-35" d="M293 226a.4.4 0 0 1-.3-.2 2.8 2.8 0 0 1-.4-.7l-.1-.7-.4-1.8-.3-2.5a28.6 28.6 0 0 1 0-3c0-1 .2-2 .3-2.9v-.7l.1-.6.3-1.2v-.5l.2-.5.2-.8.2-.6a1.6 1.6 0 0 1 .5-1 1.7 1.7 0 0 1 0 1.1l-.2.7-.2.7v.5l-.2.5-.2 1.2v1.3c-.2.9-.2 1.9-.3 2.9a27.4 27.4 0 0 0 .1 2.8 24.8 24.8 0 0 0 .7 4.2l.2.7a1.4 1.4 0 0 1 0 1.1z"/><path class="cls-35" d="M292 214.8a.6.6 0 0 1 .2-.7l.3-.2.8-.7.6-.5.6-.4.1-.2h.2l.3-.3.4-.3.4-.2 2.6-1.6.3-.2.2-.1.4-.3.3-.2.2-.1.2-.1a.2.2 0 0 1 .2 0 .2.2 0 0 1-.1.2l-.1.1a1.3 1.3 0 0 1-.2.2l-.4.2-.3.3-.3.1-.2.2-2.6 1.7-.4.2-.3.3-.3.2-.2.2h-.1l-.6.6-.5.4-.8.7-.3.2a.7.7 0 0 1-.6.4z"/><path class="cls-35" d="M297.2 210.7a.2.2 0 0 1 .2-.1h2.4a.2.2 0 0 1 .2 0 .2.2 0 0 1-.1.2h-2.6a.2.2 0 0 1-.1-.1v-.1zM292.3 212.4a.2.2 0 0 1-.2 0l-.3-.5a10.6 10.6 0 0 1-.4-1 10 10 0 0 1-.4-1v-.5a.2.2 0 0 1 0-.3.2.2 0 0 1 .2.2v.5a9.7 9.7 0 0 0 .4 1 10.2 10.2 0 0 0 .5 1l.3.4a.2.2 0 0 1 0 .2zM292 220a.2.2 0 0 0-.1-.1 1.1 1.1 0 0 0-.3-.2h-.1l-.2-.1a6 6 0 0 1-.7-.4 7.7 7.7 0 0 1-1.7-1.7 10.3 10.3 0 0 1-.7-1.1 14.6 14.6 0 0 1-.9-1.7v-.3a.6.6 0 0 0-.4-.5.5.5 0 0 0 0 .6v.3l.3.8.6 1a10.9 10.9 0 0 0 .7 1.2 9 9 0 0 0 .9 1 7.2 7.2 0 0 0 .9.8 6.7 6.7 0 0 0 .7.4l.2.1a.8.8 0 0 0 .5.1.2.2 0 0 0 .2 0z"/><path class="cls-35" d="M288.6 217.5a.2.2 0 0 1-.2-.3v-.5c0-.1 0-.3.2-.5v-.6l.2-.6v-.5l.2-.5a.2.2 0 0 1 .1-.2.2.2 0 0 1 .1.3v.5l-.1.5-.1.6-.1.6v1a.2.2 0 0 1-.2.2h-.1zM287.6 216a.2.2 0 0 1-.2 0l-.4-.2a8.4 8.4 0 0 1-1-.5 9.3 9.3 0 0 1-.7-.6l-.3-.3a.2.2 0 0 1-.1-.3.2.2 0 0 1 .2 0v.2l.3.2a9 9 0 0 0 .8.5 8.4 8.4 0 0 0 .9.5l.4.2a.2.2 0 0 1 .1.2z"/><ellipse cx="77.6" cy="203.2" rx="7.4" ry="10.7" transform="rotate(-23.1 77.5 203.1)" style="mix-blend-mode:multiply" fill="url(#linear-gradient-27)" opacity=".9"/><ellipse cx="86.7" cy="206.8" rx="8.3" ry="5.7" transform="rotate(-63.5 86.7 206.9)" style="mix-blend-mode:multiply" fill="url(#linear-gradient-28)" opacity=".9"/><ellipse cx="71.1" cy="210.5" rx="3.5" ry="5.1" transform="rotate(-60.6 71.1 210.5)" style="mix-blend-mode:multiply" fill="url(#linear-gradient-29)" opacity=".9"/><path class="cls-150" d="M80.6 226.2a.6.6 0 0 0 .4-.5 4.3 4.3 0 0 0 .4-1.2l.1-1 .2-2.8-.1-4a43.8 43.8 0 0 0-.6-4.4 63 63 0 0 0-1-4.4l-.2-.5-.1-.5-.3-1-.6-1.8-.3-.8-.3-.7-.5-1-.4-1a2.5 2.5 0 0 0-1-1.5 2.6 2.6 0 0 0 .3 1.8l.4 1 .5 1 .2.8.3.7.6 1.7.2 1 .2.5.1.5 1 4.4a42.2 42.2 0 0 1 .4 4.3v3.9c0 1.2 0 2-.2 2.6s-.1 1-.1 1c-.1 1-.1 1.7.1 1.8z"/><path class="cls-150" d="M81.3 215.8a.8.8 0 0 0-.4-.8l-.5-.2-1-.8-.8-.4-.8-.5-.3-.1-.2-.1-.5-.3-.4-.2-.5-.2c-1.3-.7-2.6-1.2-3.6-1.6l-.4-.1-.3-.2-.5-.2-.4-.2-.3-.2h-.2a.3.3 0 0 0-.3 0 .3.3 0 0 0 .1.2l.2.2a1.6 1.6 0 0 0 .3.2l.4.2.5.3.4.1.3.2c1 .5 2.3 1 3.5 1.7l.5.2.5.3.4.1.2.2.2.1.8.5.8.5 1 .7.4.3a.8.8 0 0 0 .8.2z"/><path class="cls-150" d="M74.1 211.6a.2.2 0 0 0-.2-.1h-.5l-1 .2-1.2.1h-.4a.2.2 0 0 0-.3.2.2.2 0 0 0 .3.1h1.5l1.2-.2H73.8l.2.1a.2.2 0 0 0 .2-.2zM78.7 205.3a.3.3 0 0 0 .4-.2l.3-.8a16 16 0 0 0 .4-1.6 15.4 15.4 0 0 0 .3-1.6l.1-.6c.1-.2 0-.2 0-.2a.3.3 0 0 0-.1-.3H80a.3.3 0 0 0-.2.3v.7a14.7 14.7 0 0 1-.4 1.6 15.5 15.5 0 0 1-.6 1.5l-.3.7a.3.3 0 0 0 .1.4zM81 216.8a.3.3 0 0 1 0-.3 1.8 1.8 0 0 1 .5-.4l.4-.2a9.3 9.3 0 0 0 .9-.8 11.8 11.8 0 0 0 2.2-2.9 15.8 15.8 0 0 0 .9-1.8l.5-1.7.4-1.2v-.4a.9.9 0 0 1 .4-.8h.1a.8.8 0 0 1 .2.9l-.1.5-.3 1.2-.6 1.7a16.7 16.7 0 0 1-.8 2 13.6 13.6 0 0 1-1.1 1.7 11 11 0 0 1-1.2 1.4 10.2 10.2 0 0 1-1 .9c-.2 0-.3.2-.3.2H82a1.3 1.3 0 0 1-.6.3.3.3 0 0 1-.3 0z"/><path class="cls-150" d="M85.5 212.2a.3.3 0 0 0 .2-.4v-.2l-.2-.6-.3-.8-.3-.8-.2-1-.3-.7-.3-.7a.3.3 0 0 0-.3-.3.3.3 0 0 0 0 .4l.2.8.2.7.3 1 .2.8.2.8.1.5v.2a.3.3 0 0 0 .4.3zM86.6 209.6a.3.3 0 0 0 .4 0l.6-.4a13 13 0 0 0 1.2-1 14.3 14.3 0 0 0 1.1-1l.3-.5.2-.1a.3.3 0 0 0 0-.4.3.3 0 0 0-.3.2l-.1.1-.4.4a13.7 13.7 0 0 1-1 1 12.5 12.5 0 0 1-1.3.8l-.6.4a.3.3 0 0 0-.1.3z"/><ellipse cx="687.8" cy="203.2" rx="7.4" ry="10.7" transform="rotate(-23.1 687.7 203.2)" style="mix-blend-mode:multiply" fill="url(#linear-gradient-30)"/><ellipse cx="697" cy="206.8" rx="8.3" ry="5.7" transform="rotate(-63.5 697 206.8)" style="mix-blend-mode:multiply" fill="url(#linear-gradient-31)" opacity=".9"/><ellipse cx="681.4" cy="210.5" rx="3.5" ry="5.1" transform="rotate(-60.6 681.3 210.5)" style="mix-blend-mode:multiply" fill="url(#linear-gradient-32)" opacity=".9"/><path class="cls-150" d="M690.9 226.2a.6.6 0 0 0 .4-.5 4.3 4.3 0 0 0 .4-1.2v-1l.3-2.8c0-1.1 0-2.5-.2-4a43.8 43.8 0 0 0-.6-4.4 63 63 0 0 0-1-4.4l-.1-.5-.1-.5-.4-1-.6-1.8-.3-.8-.2-.7-.5-1-.4-1a2.5 2.5 0 0 0-1-1.5h-.1a2.6 2.6 0 0 0 .4 1.8l.4 1 .4 1 .3.8.3.7.5 1.7.3 1 .2.5v.5c.5 1.4.8 2.9 1 4.4a42.2 42.2 0 0 1 .5 4.3 38.2 38.2 0 0 1 0 3.9l-.2 2.6-.1 1c-.2 1-.1 1.7.1 1.8z"/><path class="cls-150" d="M691.6 215.8a.8.8 0 0 0-.5-.8l-.4-.2-1-.8-.8-.4-.9-.5-.2-.1-.2-.1-.5-.3-.5-.2-.5-.2c-1.3-.7-2.6-1.2-3.6-1.6l-.3-.2-.3-.1-.5-.2-.4-.2-.3-.2h-.3a.3.3 0 0 0-.2 0 .3.3 0 0 0 0 .2l.3.2a1.6 1.6 0 0 0 .3.2l.4.2.5.3.3.1.4.2 3.5 1.6.5.3.4.2.5.3.2.1.2.1.8.5.8.5 1 .7.3.3a.8.8 0 0 0 .9.3z"/><path class="cls-150" d="M684.4 211.6a.2.2 0 0 0-.3-.1h-.4l-1.1.2-1 .1-.6.2a.2.2 0 0 0-.2.2.2.2 0 0 0 .2 0h1.6l1.1-.1h.5a.2.2 0 0 0 .2-.2zM689 205.3a.3.3 0 0 0 .4-.2l.2-.8a16.1 16.1 0 0 0 .5-1.6 15.5 15.5 0 0 0 .3-1.6v-.6-.2a.3.3 0 0 0 0-.3h-.1a.3.3 0 0 0-.2.3v.2l-.1.5a14.6 14.6 0 0 1-.4 1.6 15.5 15.5 0 0 1-.5 1.5l-.3.7a.3.3 0 0 0 0 .4zM691.2 216.8a.3.3 0 0 1 .1-.3 1.7 1.7 0 0 1 .4-.4h.1l.3-.2a9.3 9.3 0 0 0 1-.8 11.8 11.8 0 0 0 2.2-3 15.8 15.8 0 0 0 .9-1.7l.5-1.7.4-1.2v-.4a.9.9 0 0 1 .4-.8h.1a.8.8 0 0 1 .2.9l-.1.5-.3 1.2-.6 1.7a16.7 16.7 0 0 1-.8 2 13.6 13.6 0 0 1-1.1 1.7 11.1 11.1 0 0 1-1.2 1.4 10.3 10.3 0 0 1-1 .9c-.2 0-.3.1-.3.2h-.1a1.3 1.3 0 0 1-.6.3.3.3 0 0 1-.3-.1z"/><path class="cls-150" d="M695.8 212.2a.3.3 0 0 0 .1-.4v-.2l-.2-.6-.2-.8-.3-.8-.3-1-.3-.7-.2-.7a.3.3 0 0 0-.3-.3.3.3 0 0 0 0 .4l.2.7.2.8.3.9.2.9.2.8.1.5v.2a.3.3 0 0 0 .4.3zM696.9 209.6a.3.3 0 0 0 .4 0l.6-.4a13 13 0 0 0 1.2-1 14.2 14.2 0 0 0 1-1l.4-.5.1-.1a.3.3 0 0 0 0-.4.3.3 0 0 0-.2.2l-.2.1-.3.4a13.5 13.5 0 0 1-1.1 1 12.5 12.5 0 0 1-1.2.8l-.6.4a.3.3 0 0 0-.2.3z"/><path fill="#a67c52" d="M5.8 223.7H764v3.5H5.8z"/><path d="M766.5 209.1l1.3 1.6s-149.4-1.6-199 0c-76.4 2.7-228.4 15.7-305 14-40.2-.8-117.7-11.8-157.6-14-26.2-1.4-105.7 0-105.7 0v-2.9s79.5-6.2 105.7-4.8c39.9 2.2 117.4 17.4 157.6 18.2 76.6 1.6 228.6-15.6 305-18.2 49.6-1.7 197.7 6.1 197.7 6.1z" opacity=".8" fill="#c7f8ff"/><path d="M768.7 210.8v104H.5v-104s79.6-1.5 105.8 0c40 2.1 117.6 13.1 157.8 14 76.7 1.6 229-11.5 305.5-14 49.6-1.7 199.1 0 199.1 0z" opacity=".7" fill="#51c1e6"/><path d="M69.5 238.4s71 13.3 159.3 10S351 233.8 372.6 235c7.1.3-5.5 3.6-30.6 5.8S232.8 251.6 236.9 257s79.7-2.5 97-4.3 26.6 1 0 4.5-121 7.6-156 .7-1.3-5.7-35-8.4-89-9.7-73.3-11z" opacity=".7" fill="#c7f8ff"/><path class="cls-158" d="M681.4 74a1.7 1.7 0 0 0-1.1-2.4 4.2 4.2 0 0 0 .1-1.1 4.3 4.3 0 0 0-6-4 8.5 8.5 0 0 0-8.3-10.2 8.4 8.4 0 0 0-3 .6 10.6 10.6 0 0 0-10.6-3.8 14.1 14.1 0 0 0-27.4 7 7.1 7.1 0 0 0-9.6 8.4 2.8 2.8 0 0 0-1.8 4l-15.5 3.9h92.4zM438.9 53.9a1.6 1.6 0 0 0-1-2.3 4 4 0 0 0-5.4-4.7 7.8 7.8 0 0 0-7.7-9.5 7.8 7.8 0 0 0-2.8.6 9.8 9.8 0 0 0-9.7-3.5A13 13 0 0 0 387 41a6.6 6.6 0 0 0-9 7.8 2.6 2.6 0 0 0-1.6 3.8L362 56h85.4zM87.2 61.9a1 1 0 0 0-.7-1.5 2.7 2.7 0 0 0-3.6-3.2 5.3 5.3 0 0 0-7.1-6 6.6 6.6 0 0 0-6.5-2.3 8.8 8.8 0 0 0-17 4.3 4.4 4.4 0 0 0-6 5.2A1.7 1.7 0 0 0 45 61l-9.6 2.4H93z"/><path d="M441 208.8s38.7-7.3 72.5-3.2 58.5 8.4 63.3 8.6 12.6 2.8-37.3-2.1-106.5 2.2-113 5.4 40.1-1.4 57.3-1.9-5 3.3-23.7 4.6-49.4 5.2-45-.7c2.3-3 25.8-7.3 44.9-8.9 17-1.4 33-1.6 32.3-2.8-2-4.5-72.5 4-51.3 1z" opacity=".4" fill="#51c1e6"/><path d="M125 192.8s70.4 13.2 157.9 9.8 121-14.3 142.6-13.1c7 .3-5.5 3.5-30.4 5.7s-108.3 10.6-104.3 16 79-2.5 96.2-4.2 26.4.8 0 4.4-120 7.5-154.6.6-1.3-5.6-34.7-8.3-88.3-9.6-72.7-11z" opacity=".3" fill="#c7f8ff"/></g></g></svg>