<svg id="Layer_1" data-name="Layer 1" xmlns="http://www.w3.org/2000/svg" viewBox="0 0 200 200"><defs><style>.cls-1{fill:#25af56}.cls-2{fill:#cecece}</style></defs><path class="cls-1" d="M62.8 193a4.3 4.3 0 0 1-4.3-4.3V31.3a19.6 19.6 0 0 1 8.8-16.4C82.8 4.6 118.8 1.6 151 7.8a4.3 4.3 0 0 1-1.6 8.4C116.6 9.9 83.7 14.3 72 22a11 11 0 0 0-5 9.2v157.4a4.3 4.3 0 0 1-4.2 4.3z"/><path class="cls-1" d="M95.6 192H30.3a4 4 0 1 1 0-8h65.3a4 4 0 1 1 0 8zM77.6 52.4a4.3 4.3 0 0 1-4.2-3.1c0-.4-2.6-10 2.5-17.5 3-4.7 8.2-7.5 15-8.4a4.3 4.3 0 1 1 1.2 8.4c-4.3.6-7.4 2.2-9 4.7-3 4.3-1.4 10.5-1.4 10.5a4.3 4.3 0 0 1-4.1 5.4z"/><path class="cls-2" d="M136.5 167.8a4.5 4.5 0 0 1-4.5-4.3V64a4.5 4.5 0 0 1 9 0v99.6a4.5 4.5 0 0 1-4.5 4.3z"/><path class="cls-2" d="M136.7 43.2a103 103 0 0 1-16.3 29.3l16.3-5.9 16.3 5.9a104.3 104.3 0 0 1-16.3-29.3zM136.7 183.7c-3.6-9.7-9.7-21.8-16.3-29.3l16.3 6 16.3-6a104.3 104.3 0 0 0-16.3 29.3z"/></svg>