<svg id="Layer_1" data-name="Layer 1" xmlns="http://www.w3.org/2000/svg" viewBox="0 0 200 200"><defs><style>.cls-1{fill:#25af56}</style></defs><path class="cls-1" d="M163.6 66.8l16.6-9.6a3.4 3.4 0 0 0-3.4-6L160.2 61a3.4 3.4 0 0 0 3.4 5.9z"/><path class="cls-1" d="M161.9 69a5.1 5.1 0 0 1-1.3-.3 5 5 0 0 1-1.3-9.2l16.7-9.7a5 5 0 0 1 3.8-.5 5 5 0 0 1 1.3 9.3l-16.7 9.6a5 5 0 0 1-2.5.7zm16.6-16.5a1.7 1.7 0 0 0-.9.2L161 62.3a1.7 1.7 0 0 0-.6 2.4 1.7 1.7 0 0 0 1 .8 1.8 1.8 0 0 0 1.4-.1l16.6-9.7a1.8 1.8 0 0 0-.9-3.2zM160.2 137.8l16.6 9.7a3.4 3.4 0 1 0 3.4-6l-16.6-9.5a3.4 3.4 0 1 0-3.4 5.8z"/><path class="cls-1" d="M178.5 149.6a5 5 0 0 1-2.5-.7l-16.7-9.6a5 5 0 0 1-1.8-7 5 5 0 0 1 3.1-2.3 5 5 0 0 1 3.8.5l16.7 9.6a5.1 5.1 0 0 1 2.4 3.1 5 5 0 0 1-5 6.4zM161 136.4l16.6 9.6a1.8 1.8 0 0 0 2.6-2 1.8 1.8 0 0 0-.8-1l-16.6-9.7a1.7 1.7 0 0 0-1.4-.2 1.7 1.7 0 0 0-1 .8 1.8 1.8 0 0 0 .6 2.5zM103.8 189.7v-19.3a3.4 3.4 0 1 0-6.9 0v19.2a3.4 3.4 0 1 0 6.9 0z"/><path class="cls-1" d="M100.3 195h-.3a5 5 0 0 1-4.7-5.5v-19a5 5 0 0 1 0-.7 5 5 0 0 1 10.2.7v19a6.3 6.3 0 0 1 0 .8 5.1 5.1 0 0 1-5.2 4.7zm0-26.6a1.8 1.8 0 0 0-1.7 1.6v19.6a1.9 1.9 0 0 0 .4 1.4 1.8 1.8 0 0 0 1.2.6 1.9 1.9 0 0 0 1.3-.4 1.7 1.7 0 0 0 .6-1.2v-19.6a1.8 1.8 0 0 0-1.6-2h-.2zM20.4 57.2l16.7 9.6a3.4 3.4 0 0 0 3.4-5.9l-16.6-9.6a3.4 3.4 0 0 0-3.5 5.9z"/><path class="cls-1" d="M38.8 69a5 5 0 0 1-2.6-.8l-16.6-9.6a5 5 0 1 1 5-8.8l16.7 9.7a5 5 0 0 1 1.9 6.9 5 5 0 0 1-3.1 2.4 5.2 5.2 0 0 1-1.3.1zM21.3 55.6l16.6 9.6a1.8 1.8 0 1 0 1.8-3L23 52.7a1.8 1.8 0 1 0-1.8 3zM100.3 31.7a3.4 3.4 0 0 0 3.5-3.4V9a3.4 3.4 0 1 0-6.9 0v19.2a3.4 3.4 0 0 0 3.4 3.4z"/><path class="cls-1" d="M100.3 33.4a5 5 0 0 1-5-5V9a5.2 5.2 0 0 1 0-.7A5 5 0 0 1 97 5a5.2 5.2 0 0 1 3.7-1.2 5.1 5.1 0 0 1 4.7 5.4v19.1a5.1 5.1 0 0 1-5 5zm0-26.4a1.8 1.8 0 0 0-1.7 1.7v19.6a1.8 1.8 0 0 0 3.5 0V9.1a1.8 1.8 0 0 0-1.6-2h-.2zM61.9 39.5a3.4 3.4 0 0 0 5.9-3.4L58 19.4a3.4 3.4 0 0 0-5.9 3.5z"/><path class="cls-1" d="M64.8 42.9a5 5 0 0 1-4.4-2.5l-9.6-16.7a5 5 0 0 1-.5-3.8 5 5 0 0 1 2.3-3.1 5 5 0 0 1 7 1.8l9.6 16.7a5 5 0 0 1-1.9 6.9 5 5 0 0 1-2.5.7zm-1.5-4.2a1.7 1.7 0 0 0 1 .8 1.8 1.8 0 0 0 1.4-.2 1.8 1.8 0 0 0 .6-2.4l-9.6-16.6a1.8 1.8 0 0 0-2.4-.6 1.7 1.7 0 0 0-.8 1 1.7 1.7 0 0 0 .2 1.4zM73.3 102.8a3.4 3.4 0 0 0 3.5-3.4 23.6 23.6 0 0 1 23.5-23.6 3.4 3.4 0 1 0 0-6.9 30.4 30.4 0 0 0-30.4 30.5 3.4 3.4 0 0 0 3.4 3.4z"/><path class="cls-1" d="M73.3 104.5a5 5 0 0 1-5-5.1 32.1 32.1 0 0 1 32-32.1 5.5 5.5 0 0 1 .7 0 5 5 0 0 1 3 8.9 4.9 4.9 0 0 1-3.8 1.2 22 22 0 0 0-21.8 22 5 5 0 0 1-5 5zm27.4-34a28.9 28.9 0 0 0-29.1 28.9 1.8 1.8 0 1 0 3.5 0A25.2 25.2 0 0 1 100.3 74a2.1 2.1 0 0 0 1.4-.4 1.7 1.7 0 0 0 .6-1.2 1.7 1.7 0 0 0-.4-1.3 1.8 1.8 0 0 0-1.2-.6zM190.6 96h-19.2a3.4 3.4 0 1 0 0 6.8h19.2a3.4 3.4 0 0 0 0-6.9z"/><path class="cls-1" d="M171.1 104.4h-.4a5.1 5.1 0 0 1-4.6-5.4 5 5 0 0 1 1.7-3.5 5.1 5.1 0 0 1 3.7-1.2h19.2a5 5 0 0 1 4.7 4.7 5 5 0 0 1-4.7 5.4h-19.6zm.1-6.8a1.8 1.8 0 0 0-1.8 1.6 1.8 1.8 0 0 0 1.6 2h19.6a1.7 1.7 0 0 0 1.1-.7 1.8 1.8 0 0 0-1.1-2.9h-19.4zM10 102.8h19.3a3.4 3.4 0 1 0 0-6.8H10a3.4 3.4 0 0 0 0 6.8z"/><path class="cls-1" d="M29.5 104.5H10a5 5 0 0 1-4.7-4.7 5 5 0 0 1 4.7-5.5h19.4a3.6 3.6 0 0 1 .6 0 5 5 0 0 1 3.5 1.7 5 5 0 0 1-.5 7.2 5 5 0 0 1-3.4 1.3zM10.1 101h19.2a1.8 1.8 0 0 0 1.4-.4 1.7 1.7 0 0 0 .6-1.2 1.8 1.8 0 0 0-.5-1.3 1.8 1.8 0 0 0-1.1-.6H10a1.7 1.7 0 0 0-1 .6 1.8 1.8 0 0 0 1.1 3zM100.3 149.7A50.3 50.3 0 1 0 64.8 135a50.3 50.3 0 0 0 35.5 14.7zm-30.7-81z"/><path class="cls-1" d="M100.3 151.3A52 52 0 1 1 137 62.6a52 52 0 0 1-36.8 88.7zm0-100.6a48.7 48.7 0 0 0 0 97.3 48.7 48.7 0 1 0 0-97.3zm0 93.9a44.9 44.9 0 0 1-31.9-13.3 45.2 45.2 0 0 1 0-63.9l2.8-2.8v.3a45.1 45.1 0 1 1 29.1 79.7zM69.5 71.2a44.3 44.3 0 1 0 1.3-1.3zM147.2 180.5a3.4 3.4 0 0 0 1.2-4.6l-9.6-16.7a3.4 3.4 0 0 0-5.9 3.4l9.6 16.7a3.4 3.4 0 0 0 4.7 1.2z"/><path class="cls-1" d="M145.5 182.6a5 5 0 0 1-4.4-2.5l-9.6-16.6a5 5 0 0 1-.6-3.9 5 5 0 0 1 2.4-3 5.1 5.1 0 0 1 7 1.8l9.6 16.6a1 1 0 0 1 0 .2l.2.2a5 5 0 0 1-2.1 6.6 5 5 0 0 1-2.5.6zm-9.7-23.4a1.8 1.8 0 0 0-1.5 2.6l9.7 16.6a1.7 1.7 0 0 0 2.4.7 1.8 1.8 0 0 0 .9-1.6h-.5v-1.2l-9.4-16.3a1.8 1.8 0 0 0-1.6-.8zM134.2 40.8a3.4 3.4 0 0 0 4.7-1.2l9.6-16.7a3.4 3.4 0 1 0-5.9-3.4L133 36a3.4 3.4 0 0 0 1.2 4.7z"/><path class="cls-1" d="M136 42.9a5 5 0 0 1-2.2-.5l-.4-.2a5 5 0 0 1-1.8-7l9.6-16.6a5 5 0 0 1 8.8 5.1l-9.7 16.7a5 5 0 0 1-4.4 2.5zm-1-3.6a1.8 1.8 0 0 0 2.4-.5l9.7-16.7a1.8 1.8 0 0 0-.7-2.4 1.8 1.8 0 0 0-2.3.6l-9.7 16.6a1.8 1.8 0 0 0 .6 2.4zM58.1 179.3l9.7-16.7a3.4 3.4 0 0 0-6-3.4l-9.6 16.6a3.4 3.4 0 0 0 6 3.5z"/><path class="cls-1" d="M55.2 182.6a5 5 0 0 1-2.6-.7 5 5 0 0 1-2.3-3 5 5 0 0 1 .5-3.9l9.6-16.6a5.1 5.1 0 0 1 7-1.9 5 5 0 0 1 2.3 3.1 5 5 0 0 1-.5 3.8l-9.6 16.7a5 5 0 0 1-4.4 2.5zm9.6-23.4a1.7 1.7 0 0 0-1.5.8l-9.6 16.7a1.7 1.7 0 0 0-.2 1.3 1.7 1.7 0 0 0 .8 1 1.8 1.8 0 0 0 2.4-.5l9.6-16.7a1.8 1.8 0 0 0-.6-2.4 1.7 1.7 0 0 0-.9-.2zM37 132l-16.6 9.6a3.4 3.4 0 1 0 3.5 5.9l16.6-9.7a3.4 3.4 0 0 0-3.4-5.9z"/><path class="cls-1" d="M22.2 149.6a5 5 0 0 1-2.6-9.5l16.6-9.6a5 5 0 0 1 3.9-.5 5 5 0 0 1 1.2 9.3l-16.6 9.6a5 5 0 0 1-2.5.7zM38.8 133a1.8 1.8 0 0 0-.9.3L21.3 143a1.8 1.8 0 1 0 1.7 3l16.6-9.6a1.8 1.8 0 0 0-.4-3.2 1.9 1.9 0 0 0-.4 0z"/></svg>