<svg xmlns="http://www.w3.org/2000/svg" viewBox="0 0 512 512"><path d="M453 269.8v173a59.4 59.4 0 0 1-59.5 59.4h-275A59.4 59.4 0 0 1 59 442.8v-173l41.4-10.3a62.6 62.6 0 0 1 35 1.3l24.4 8.2a62.6 62.6 0 0 0 35 1.3l46-11.5c9.9-2.5 20.3-2.5 30.3 0l45.9 11.5a62.6 62.6 0 0 0 35-1.3l24.5-8.2a62.6 62.6 0 0 1 35-1.3l41.3 10.3z" fill="#1DA57A"/><path fill='#1DA57A' d="M453 0a9.8 9.8 0 0 0-10 9.8v247.4l-29-7.3a72.3 72.3 0 0 0-40.6 1.6l-24.5 8.1a52.7 52.7 0 0 1-29.4 1.2l-46-11.5a72.7 72.7 0 0 0-35 0l-46 11.5c-9.7 2.4-20 2-29.4-1.2l-24.5-8.1c-13.1-4.4-27.1-5-40.5-1.6l-29.2 7.3v-50.4h29.6a9.8 9.8 0 0 0 0-19.7H68.9v-19.7h49.3a9.8 9.8 0 0 0 0-19.7H68.9V128h29.6a9.8 9.8 0 0 0 0-19.7H68.9V88.6h49.3a9.8 9.8 0 0 0 0-19.7H68.9V49.2h29.6a9.8 9.8 0 0 0 0-19.7H68.9V9.8a9.8 9.8 0 0 0-19.7 0v433a69.4 69.4 0 0 0 69.3 69.2h275c38.2 0 69.3-31 69.3-69.2V9.8c0-5.4-4.4-9.8-9.9-9.8zm-10 442.8a49.6 49.6 0 0 1-49.5 49.5h-275a49.6 49.6 0 0 1-45.3-29.5h45a9.8 9.8 0 0 0 0-19.7H68.9V277.5l34-8.5c9.7-2.4 19.9-2 29.4 1.1l24.5 8.2c13.1 4.4 27.1 4.9 40.5 1.6l46-11.5a53 53 0 0 1 25.5 0l45.9 11.5a72.4 72.4 0 0 0 40.5-1.6l24.5-8.2a52.6 52.6 0 0 1 29.4-1l34 8.4v165.3z"/></svg>